<?xml version="1.0" encoding="UTF-8"?>
<svg width="104px" height="102px" viewBox="0 0 104 102" version="1.1" xmlns="http://www.w3.org/2000/svg" xmlns:xlink="http://www.w3.org/1999/xlink">
    <!-- Generator: Sketch 53.2 (72643) - https://sketchapp.com -->
    <title>logo_avatar_350BK</title>
    <desc>Created with Sketch.</desc>
    <g id="Page-1" stroke="none" stroke-width="1" fill="none" fill-rule="evenodd">
        <g id="logo_avatar_350BK" transform="translate(-1.000000, -4.000000)">
            <g id="350" transform="translate(1.341615, 4.919255)" fill="#0F81E8" fill-rule="nonzero">
                <path d="M88.5009437,0 C80.661676,0 74.2594126,6.44205316 74.2594126,14.3449437 L74.2594126,30.4141543 C74.2594126,38.3290189 80.661676,44.759098 88.5009437,44.759098 C96.3402115,44.759098 102.742475,38.3170448 102.742475,30.4141543 L102.742475,14.3569177 C102.742475,6.44205316 96.3402115,0 88.5009437,0 Z M83.8978566,13.8899287 C83.8978566,11.3633986 85.9540579,9.26793522 88.5009437,9.26793522 C91.0478295,9.26793522 93.1040309,11.3274764 93.1040309,13.8899287 L93.1040309,31.300236 C93.1040309,33.8267661 91.0478295,35.9222295 88.5009437,35.9222295 C86.0007898,35.9222295 83.8978566,33.8626884 83.8978566,31.300236 L83.8978566,13.8899287 Z" id="Shape"></path>
                <path d="M57.6224935,14.8709511 C55.2436361,14.8709511 53.3428825,15.6038596 52.0485042,16.431337 C52.1767759,15.3910797 52.911423,9.65784341 53.0396948,8.57030168 C52.8764398,8.57030168 64.9456425,8.57030168 66.7064634,8.57030168 C67.161245,8.57030168 67.522738,8.27477404 67.5693822,7.86103533 C67.6510097,6.53707149 67.5693822,2.50607442 67.5693822,0.839298509 C67.5693822,0.295527644 67.3594831,0.0472844231 66.7064634,0.0472844231 C62.2869196,0.0472844231 51.5937226,0 47.1741789,0 C46.1130219,0 45.9847502,0.744729663 45.8681395,1.53674375 C45.4600022,4.23195586 42.9761953,22.578312 42.8945679,23.1220829 C42.8479236,23.6658537 42.9412121,23.8668125 43.4659601,24.1978035 C44.8536268,24.8597854 47.6989268,25.9118638 48.3519465,26.2073915 C49.0865936,26.5383824 49.4947309,26.8693734 50.1943948,26.0773593 C52.0368431,24.0441291 53.5061374,22.8856608 55.8033673,22.8856608 C59.6165356,22.8856608 61.8787823,25.1553131 61.8554602,28.7016448 C61.8321381,32.2479765 59.2200594,34.3284911 56.0365886,34.3284911 C53.4711542,34.3284911 52.3050476,33.6192248 50.6025321,32.3307243 C49.8212407,31.7514901 48.795067,30.959476 48.1420473,30.3329574 C47.5240108,29.7891865 47.1158735,30.0019664 46.2529547,30.9121916 C45.063526,32.1534077 43.3027051,34.2812067 42.1599207,35.4396751 C41.5885285,36.0189093 41.5418843,36.432648 42.1132765,37.0591666 C43.4193158,38.5131626 44.7719994,39.671631 46.5328203,40.9246682 C49.3081538,42.8751506 52.9697284,43.809018 56.4913701,43.7380913 C64.0127573,43.7380913 71.2076347,38.111245 71.2076347,29.2099523 C71.2192957,21.3725592 66.4265978,14.8709511 57.6224935,14.8709511 Z" id="Shape"></path>
                <path d="M36.7614797,21.3891338 C39.6280705,18.4432551 40.6835516,14.4089395 40.0478641,10.4574396 C39.3761943,6.42312394 36.6295446,3.01584266 32.8394078,1.2767095 C29.0852533,-0.474254492 23.3160895,-0.391438627 19.9817286,1.32403285 C16.6473678,2.94485763 14.0446473,7.06198919 13.5289009,7.7245161 C13.313007,8.02028705 13.3969657,8.51718224 13.7447947,8.80112234 C14.2965235,9.26252502 17.6188902,12.1729111 18.6743713,12.9182539 C19.2261001,13.2968407 19.6818761,13.2968407 20.1856284,12.7526222 C20.8572982,12.0900953 22.1286732,10.6703947 22.8363253,10.0551911 C23.8918064,9.17970915 25.2351461,8.89576904 26.0867274,8.89576904 C28.0657545,8.89576904 29.7089467,9.77125104 30.3446342,11.4748917 C30.9323453,13.0602239 30.5125517,15.0951281 29.0372769,16.0415951 C27.8618548,16.8342612 25.7508925,17.1655247 24.4435352,17.3666489 C22.5844491,17.6150965 22.5484668,18.3604393 22.4645081,19.034797 C22.332573,20.1942191 22.2965907,22.5248942 22.3805494,23.9445947 C22.4645081,25.021201 23.7718654,25.3997878 25.0312463,25.5654195 C26.2906272,25.7783746 27.310126,25.7310512 28.4015894,26.1451306 C30.2606755,26.8076575 31.2681802,29.0555167 30.9683276,30.924789 C30.668475,32.8413847 28.9053418,34.0836227 27.0102734,34.3320703 C24.9832699,34.5805179 23.2201366,33.2909566 21.9487617,31.8830869 C21.3130742,31.1732366 20.1736343,29.8836753 19.7178584,29.3512876 C19.3820235,28.9727008 18.8302947,29.1383325 18.3745188,29.3986109 C17.6548725,29.8126903 13.1450896,32.8887081 12.5213962,33.3501108 C12.1855613,33.6813742 12.1016025,33.9771452 12.3534787,34.3439011 C13.2410424,35.7990942 14.2965235,37.3725956 15.5559044,38.8277887 C16.8632617,40.3657976 18.5904126,41.572543 20.4494987,42.448025 C26.3505977,45.1927794 33.8948889,43.4418154 37.9009195,38.4137094 C41.9909089,33.3264491 41.5591212,25.9203446 36.7614797,21.3891338 Z" id="Shape"></path>
                <path d="M15.2587834,24.4265102 L15.2587834,19.3104162 C15.2587834,18.6362956 14.9320803,18.1307051 14.4420257,18.1307051 L9.40146414,18.1307051 L9.40146414,12.292339 C9.40146414,11.8228621 9.07476107,11.3654231 8.61971037,11.2330066 C8.16465967,11.10059 7.63960117,11.2811581 7.34790201,11.654332 L0.218774375,21.2123994 C-0.0729247916,21.5976112 -0.0729247916,22.1032016 0.218774375,22.4763755 L7.34790201,32.0825944 C7.55792541,32.3835411 7.91963237,32.5520713 8.24633544,32.5520713 C8.37468307,32.5520713 8.49136274,32.5520713 8.57303851,32.5039198 C9.02808921,32.3715032 9.35479227,31.9140642 9.35479227,31.4445874 L9.35479227,25.7386378 L13.986975,25.7386378 C14.9787522,25.7386378 15.2587834,25.1487823 15.2587834,24.4265102 Z" id="Shape" opacity="0.6"></path>
            </g>
            <path d="M11.7821309,74.7778309 C10.0965038,74.0955532 8.70186887,73.1323521 7.59818442,71.8881988 C6.49449998,70.6440454 5.60153232,69.1791771 4.91925466,67.4935499 C5.32059446,66.4099325 5.9627285,65.4968981 6.84567606,64.7544195 C7.72862362,64.0119409 8.72192473,63.3798402 9.82560917,62.8580984 C10.9292936,62.3363567 12.1031949,61.9149562 13.3473483,61.5938844 C14.5915017,61.2728125 15.795503,60.9918789 16.9593884,60.751075 C17.2001923,60.831343 17.3205925,60.831343 17.3205925,60.751075 C17.3205925,60.6708071 17.4209259,60.7109404 17.6215958,60.8714763 C19.0664191,60.4300026 20.7319543,59.9985688 22.6182513,59.577162 C24.5045484,59.1557552 26.5112173,59.005255 28.6383182,59.125657 C28.9192561,58.965121 29.2603898,58.8748209 29.6617296,58.8547539 C30.0630694,58.834687 30.4844698,58.8246536 30.9259436,58.8246536 C31.3674174,58.8246536 31.7888179,58.8146203 32.1901577,58.7945533 C32.5914975,58.7744863 32.9326312,58.7042529 33.213569,58.5838509 C33.4543729,58.8647888 33.8155733,59.0353556 34.2971811,59.0955566 C34.7787888,59.1557576 35.2804561,59.3664578 35.8021978,59.7276636 C35.9627337,59.7677976 35.9627337,59.6975642 35.8021978,59.5169613 C35.6416619,59.3363584 35.6617286,59.2059249 35.8623985,59.125657 C36.3841402,59.125657 36.8456741,59.2460571 37.2470139,59.486861 C37.6483537,59.7276648 38.0195874,59.9985651 38.3607262,60.29957 C38.7018651,60.6005748 39.0229321,60.8714751 39.3239369,61.112279 C39.6249418,61.3530829 39.9560422,61.473483 40.317248,61.473483 C40.6784538,61.9149568 41.1098876,62.3263239 41.6115624,62.7075968 C42.1132371,63.0888696 42.5948376,63.48017 43.0563784,63.8815098 C43.5179192,64.2828496 43.8991863,64.7243168 44.2001911,65.2059245 C44.501196,65.6875323 44.6516961,66.2293329 44.6516961,66.8313426 C44.6115622,67.0721465 44.6918289,67.2126133 44.8924988,67.2527473 C45.0931687,67.2928812 45.2336355,67.4132814 45.3139035,67.6139513 C45.3540375,69.0989085 45.1232705,70.3831766 44.6215958,71.4667941 C44.119921,72.5504115 43.4878203,73.5437126 42.7252747,74.4467272 C41.9627291,75.3497417 41.1500282,76.202576 40.2871476,77.0052556 C39.4242671,77.8079352 38.6316329,78.6708028 37.9092212,79.5938844 C38.390829,80.1958941 38.9426629,80.747728 39.5647396,81.2494028 C40.1868163,81.7510775 40.818917,82.2427114 41.4610607,82.7243192 C42.1032044,83.2059269 42.7152384,83.7176275 43.2971811,84.2594362 C43.8791238,84.8012449 44.3707577,85.413279 44.7720975,86.0955566 C44.8924994,86.3363605 45.1533664,86.496894 45.5547062,86.577162 C45.6751081,87.0587697 45.845675,87.5504036 46.0664118,88.0520784 C46.2871487,88.5537531 46.497849,89.0353536 46.6985189,89.4968944 C46.8991888,89.9584352 47.0195889,90.3698023 47.0597229,90.7310081 C47.0998569,91.0922139 46.9995234,91.3932143 46.7587195,91.6340182 C47.0396574,91.7945541 47.2001909,92.0453877 47.2403249,92.3865265 C47.2804589,92.7276653 47.2804589,92.9985656 47.2403249,93.1992355 C46.3573773,94.282853 45.7553767,95.0453872 45.4343048,95.486861 C45.113233,95.9283347 44.8724327,96.2494018 44.7118968,96.4500717 C44.5513609,96.6507416 44.3908274,96.8313418 44.2302914,96.9918777 C44.0697555,97.1524136 43.7085551,97.4734806 43.1466794,97.9550884 C41.0195785,99.2393757 38.8022093,100.39321 36.4945055,101.416627 C34.1868016,102.440043 31.7888323,103.132344 29.3005256,103.49355 C29.0998557,103.774488 28.8088887,104.005255 28.4276159,104.185858 C28.0463431,104.366461 27.6149092,104.516961 27.1333015,104.637363 C26.6516937,104.757765 26.1399932,104.858098 25.5981844,104.938366 C25.0563757,105.018634 24.5647418,105.098901 24.123268,105.179169 C23.9225981,105.098901 23.8122313,104.968467 23.7921644,104.787864 C23.7720974,104.607261 23.6617306,104.476828 23.4610607,104.39656 C23.4209267,104.878168 23.2102265,105.129001 22.8289537,105.149068 C22.4476808,105.169135 21.9761137,105.078835 21.4142379,104.878165 C20.8523622,104.677495 20.2704282,104.396562 19.6684185,104.035356 C19.0664088,103.67415 18.5446749,103.333016 18.1032011,103.011945 C17.9025312,103.37315 17.6516976,103.754417 17.3506928,104.155757 C17.0496879,104.557097 16.7386543,104.838031 16.4175824,104.998567 C15.8557067,104.918299 15.4443396,104.858099 15.1834687,104.817965 C14.9225978,104.777831 14.6717642,104.878164 14.4309603,105.118968 C14.1098885,104.958432 13.8690882,104.787865 13.7085523,104.607262 L13.226947,104.065456 C13.066411,103.884853 12.8858108,103.72432 12.6851409,103.583851 C12.484471,103.443382 12.1834707,103.312949 11.7821309,103.192547 C11.8623989,102.991877 11.8021988,102.680843 11.6015289,102.259436 C11.400859,101.838029 11.1199254,101.587196 10.7587195,101.506928 C10.9593894,101.185856 10.8791227,100.774489 10.5179169,100.272814 C10.156711,99.7711394 9.8757774,99.1992388 9.6751075,98.5570951 C9.71524148,98.2761572 9.74534151,97.9851902 9.7654085,97.6841854 C9.78547549,97.3831805 9.82560887,97.1022469 9.88580984,96.841376 C9.94601081,96.5805051 10.0363109,96.3497382 10.1567129,96.1490683 C10.2771148,95.9483984 10.4777817,95.8079316 10.7587195,95.7276636 C10.7185856,95.2059219 10.558052,94.7042547 10.2771142,94.2226469 C10.63832,93.9417091 10.8791203,93.590542 10.9995222,93.1691352 C11.1199242,92.7477284 11.2302909,92.3162946 11.3306259,91.8748208 C11.4309608,91.4333471 11.5613943,91.0019132 11.7219302,90.5805065 C11.8824662,90.1590997 12.1433331,89.8079326 12.5045389,89.5269947 C12.424271,89.4065928 12.3440042,89.3062594 12.2637363,89.2259914 C12.1834683,89.1457234 12.1433349,89.0052566 12.1433349,88.8045867 C12.7453446,87.8012372 13.1667451,86.9484029 13.407549,86.2460583 C13.6483529,85.5437136 13.8389864,84.8614462 13.9794553,84.1992355 C14.1199243,83.5370249 14.2704244,82.8246574 14.4309603,82.0621118 C14.5914963,81.2995662 14.9125633,80.3363651 15.394171,79.1724797 C15.3540371,78.4500681 15.4343038,77.807934 15.6349737,77.2460583 C15.8356436,76.6841826 16.0463439,76.1323486 16.2670807,75.5905399 C16.4878176,75.0487312 16.6583845,74.4768305 16.7787864,73.8748208 C16.8991884,73.2728111 16.8791217,72.570477 16.7185858,71.7677974 C16.0363081,71.8480654 15.5446742,72.0888656 15.2436694,72.4902054 C14.9426645,72.8915452 14.752031,73.4333458 14.671763,74.1156235 C14.3105572,74.4366953 13.8490234,74.5871955 13.2871476,74.5671285 C12.7252719,74.5470615 12.2236047,74.6172949 11.7821309,74.7778309 Z M38.2704252,86.39656 C36.745334,85.5537464 35.3506991,85.0520792 34.0864787,84.8915432 C32.8222584,84.7310073 31.618257,84.7410407 30.4744386,84.9216436 C29.3306202,85.1022465 28.2369856,85.3530801 27.1935022,85.6741519 C26.1500187,85.9952238 25.1065508,86.236024 24.0630674,86.39656 C23.5413256,87.7611153 22.999525,89.266117 22.4376493,90.9116101 C21.8757736,92.5571033 21.333973,94.1624384 20.8122312,95.7276636 C22.2570545,95.5269937 23.581456,95.2259934 24.7854754,94.8246536 C25.9894948,94.4233138 27.1533628,93.9718133 28.2771142,93.4701386 C29.4008656,92.9684638 30.5045335,92.4667966 31.588151,91.9651218 C32.6717684,91.4634471 33.795503,90.9918799 34.9593884,90.5504061 C35.0797904,90.0687984 35.3406573,89.6875313 35.7419971,89.4065934 C36.1433369,89.1256555 36.5446707,88.8547552 36.9460105,88.5938844 C37.3473503,88.3330135 37.688484,88.0420465 37.9694219,87.7209747 C38.2503597,87.3999028 38.3506932,86.9584357 38.2704252,86.39656 Z M34.0563784,67.5537506 C31.5680716,67.4734826 29.1199356,67.6942162 26.7118968,68.215958 C24.303858,68.7376997 22.2771224,69.5002339 20.6316292,70.5035834 C21.4343088,71.185861 22.2670764,71.7878617 23.129957,72.3096034 C23.9928376,72.8313452 24.645005,73.5336793 25.0864787,74.4166269 C27.0129098,73.6540812 28.6985116,72.6808468 30.1433349,71.4968944 C31.5881582,70.312942 32.892493,68.9985739 34.0563784,67.5537506 Z M50.310559,92.8380315 L50.40086,92.4768275 C50.420927,92.3965596 50.3506936,92.2962261 50.1901577,92.1758242 C50.1098897,91.8948863 50.1700898,91.7142861 50.3707597,91.6340182 L50.9727664,91.3932155 C51.1734363,88.9851767 51.5848034,86.7878742 52.2068801,84.8012422 C52.8289568,82.8146102 53.5112242,80.8781747 54.2537028,78.9918777 C54.9961814,77.1055806 55.7386489,75.2092785 56.4811276,73.3029145 C57.2236062,71.3965504 57.8356402,69.3196481 58.317248,67.0721452 C58.8389897,66.5504035 59.2704235,65.9283361 59.6115624,65.2059245 C59.9527012,64.4835129 60.2938349,63.7510787 60.6349737,63.0086001 C60.9761126,62.2661215 61.3774463,61.553754 61.8389871,60.8714763 C62.3005279,60.1891987 62.9326286,59.6273314 63.7353082,59.1858576 C64.096514,59.2259916 64.4276144,59.296225 64.7286192,59.39656 C65.0296241,59.4968949 65.320591,59.6072617 65.6015289,59.7276636 C65.8824668,59.8480656 66.1834671,59.948399 66.5045389,60.028667 C66.8256108,60.1089349 67.1667445,60.1490683 67.5279503,60.1490683 C67.6884862,60.3497382 67.8289531,60.5805051 67.949355,60.841376 C68.0697569,61.1022469 68.2302904,61.3330138 68.4309603,61.5336837 L69.5145724,61.3530817 C70.0363141,61.7945555 70.497848,62.3463894 70.8991878,63.0086001 C71.3005276,63.6708108 71.5814612,64.3530782 71.7419971,65.0554228 C71.9025331,65.7577675 71.8824664,66.4400349 71.6817965,67.1022456 C71.4811266,67.7644562 71.0195927,68.2761568 70.2971811,68.6373626 C70.3373151,68.8781665 70.3373151,69.0587667 70.2971811,69.1791687 C70.2570471,69.2995706 70.2068804,69.4099374 70.1466794,69.5102723 C70.0864784,69.6106073 70.0563784,69.7109407 70.0563784,69.8112757 C70.0563784,69.9116106 70.1366452,70.0420441 70.2971811,70.20258 C69.8557073,70.5637858 69.4543735,71.0152863 69.0931677,71.5570951 C68.7319619,72.0989038 68.4309615,72.6708044 68.1901577,73.2728141 C67.9493538,73.8748238 67.7587202,74.4768245 67.6182513,75.0788342 C67.4777824,75.6808439 67.3874823,76.2427112 67.3473483,76.7644529 C68.5112337,75.5604335 69.8757686,74.436699 71.4409938,73.3932155 C73.006219,72.349732 74.3707539,71.3664642 75.5346393,70.4433827 C76.4577208,69.801239 77.2704217,69.189205 77.9727664,68.6072623 C78.675111,68.0253196 79.3874785,67.483519 80.1098901,66.9818442 C80.8323017,66.4801695 81.5848026,65.998569 82.3674152,65.5370282 C83.1500278,65.0754874 83.942662,64.5637869 84.7453416,64.0019111 C85.1466814,63.8413752 85.4577151,63.8012418 85.678452,63.8815098 C85.8991889,63.9617778 86.1098891,64.0621112 86.310559,64.1825131 C86.350693,63.9015753 86.2904929,63.7310084 86.129957,63.6708075 C85.9694211,63.6106065 85.909221,63.4199729 85.949355,63.0989011 C86.6316327,62.8982312 87.2436667,62.6574309 87.7854754,62.3764931 C88.3272841,62.0955552 88.8991848,61.8346883 89.5011945,61.5938844 C89.9025343,62.0353582 90.303868,62.5069253 90.7052078,63.0086001 C91.1065476,63.5102748 91.6483482,63.7811751 92.3306259,63.8213091 C92.5714298,64.3430509 92.8623968,64.7343513 93.2035356,64.9952222 C93.5446744,65.256093 93.8858081,65.5069267 94.226947,65.7477305 C94.5680858,65.9885344 94.8590528,66.2795014 95.0998567,66.6206402 C95.3406605,66.9617791 95.4811274,67.4935463 95.5212613,68.215958 C95.3607254,68.5370298 95.1700919,68.8881969 94.949355,69.2694697 C94.7286181,69.6507425 94.5379846,70.1223097 94.3774486,70.6841854 C93.4142331,71.5671329 92.4409987,72.3397005 91.4577162,73.0019111 C90.4744337,73.6641218 89.4710992,74.2962225 88.4476828,74.8982322 C87.4242663,75.5002419 86.3807984,76.1223093 85.317248,76.7644529 C84.2536975,77.4065966 83.1801296,78.1490641 82.0965122,78.9918777 C81.8557083,79.3530835 81.554708,79.6741505 81.1935022,79.9550884 C80.8322963,80.2360262 80.4610626,80.5069266 80.0797898,80.7677974 C79.698517,81.0286683 79.3373166,81.2995686 78.9961777,81.5805065 C78.6550389,81.8614443 78.3841386,82.202578 78.1834687,82.6039178 C78.0229328,82.6039178 77.882466,82.6139512 77.762064,82.6340182 C77.6416621,82.6540851 77.5011953,82.6841852 77.3406593,82.7243192 C77.1801234,83.045391 76.9493565,83.306258 76.6483516,83.5069279 C76.3473468,83.7075978 76.1366466,83.9684647 76.0162446,84.2895366 C76.7386563,85.8547618 77.6817906,87.0386964 78.8456761,87.841376 C80.0095615,88.6440556 81.3138963,89.2259896 82.7587195,89.5871954 C84.2035428,89.9484012 85.7687446,90.1490681 87.4543717,90.1892021 C89.1399989,90.2293361 90.8858008,90.2494028 92.6918299,90.2494028 C92.8924998,90.2092688 92.9827999,90.098902 92.9627329,89.9182991 C92.9426659,89.7376962 93.0530327,89.6674628 93.2938366,89.7075968 C93.8958463,89.9082667 94.3975135,90.1490669 94.7988533,90.4300048 C95.2001931,90.7109426 95.5814602,91.011943 95.942666,91.3330148 C96.3038718,91.6540867 96.6550389,91.985187 96.9961777,92.3263258 C97.3373166,92.6674647 97.728617,93.0186317 98.1700908,93.3798376 C98.0898228,95.2661346 97.5379889,96.8012363 96.5145724,97.9851887 C95.4911559,99.1691411 94.1366544,100.122309 92.4510272,100.84472 C90.1232564,100.924988 88.0965208,100.864788 86.3707597,100.664118 C84.6449985,100.463449 82.93933,100.021981 81.2537028,99.3397038 C81.1333009,99.2995698 81.0229341,99.1791697 80.9225991,98.9784998 C80.8222642,98.7778299 80.7319641,98.637363 80.6516961,98.5570951 C80.3306243,98.3564252 79.9694239,98.2761584 79.5680841,98.3162924 C79.1667443,98.3564264 78.8256106,98.316293 78.5446727,98.1958911 C78.1834669,98.0353551 77.5914996,97.6741547 76.768753,97.112279 C75.9460064,96.5504033 75.1935056,96.0286694 74.5112279,95.5470616 C73.6684143,94.864784 72.8557134,94.1925499 72.0731008,93.5303392 C71.2904882,92.8681286 70.5981874,92.1356944 69.9961777,91.3330148 C69.8757758,91.1323449 69.7052089,91.0320115 69.484472,91.0320115 C69.2637352,91.0320115 69.0530349,90.9718114 68.852365,90.8514095 C67.4476757,91.734357 66.2737744,92.8279916 65.3306259,94.1323459 C64.3874774,95.4367003 63.474443,96.7611017 62.5914955,98.1055901 C61.7085479,99.4500784 60.7754469,100.71428 59.7921644,101.898232 C58.8088818,103.082185 57.5747805,103.995219 56.0898232,104.637363 C55.6483494,104.637363 55.2670824,104.567129 54.9460105,104.42666 C54.6249387,104.286191 54.3239383,104.105591 54.0430005,103.884854 C53.7620626,103.664117 53.481129,103.453417 53.2001911,103.252747 C52.9192533,103.052077 52.5981862,102.911611 52.2369804,102.831343 C52.2369804,102.269467 52.1266136,101.7377 51.9058767,101.236025 C51.6851398,100.73435 51.4644063,100.272816 51.2436694,99.8514095 C51.0229325,99.4300027 50.862399,99.0186355 50.762064,98.6172957 C50.6617291,98.2159559 50.7720959,97.8146222 51.0931677,97.4132824 C50.6516939,97.0520766 50.2302935,96.7510762 49.8289537,96.5102723 C50.1098915,96.2293345 50.240325,95.9684675 50.220258,95.7276636 C50.200191,95.4868598 50.1299576,95.2460595 50.0095557,95.0052556 C49.8891537,94.7644517 49.7988536,94.5136181 49.7386527,94.2527473 C49.6784517,93.9918764 49.7486851,93.7009094 49.949355,93.3798376 C50.1098909,93.3397036 50.1801243,93.2594368 50.1600573,93.1390349 C50.1399903,93.0186329 50.1901571,92.9182995 50.310559,92.8380315 Z" id="BK" fill="#FFA902"></path>
        </g>
    </g>
</svg>