<?xml version="1.0" encoding="UTF-8"?>
<svg width="180px" height="22px" viewBox="0 0 180 22" version="1.1" xmlns="http://www.w3.org/2000/svg" xmlns:xlink="http://www.w3.org/1999/xlink">
    <!-- Generator: Sketch 54.1 (76490) - https://sketchapp.com -->
    <title>logo_350BK</title>
    <desc>Created with Sketch.</desc>
    <g id="Page-1" stroke="none" stroke-width="1" fill="none" fill-rule="evenodd">
        <g id="logo_350BK">
            <g id="350" transform="translate(-0.000000, 0.865385)" fill-rule="nonzero">
                <path d="M41.0664336,0 C37.4288365,0 34.458042,2.98925793 34.458042,6.65637733 L34.458042,14.1128534 C34.458042,17.7855291 37.4288365,20.7692308 41.0664336,20.7692308 C44.7040306,20.7692308 47.6748252,17.7799728 47.6748252,14.1128534 L47.6748252,6.66193357 C47.6748252,2.98925793 44.7040306,0 41.0664336,0 Z M38.9304973,6.44524015 C38.9304973,5.27287319 39.8846211,4.30053093 41.0664336,4.30053093 C42.248246,4.30053093 43.2023698,5.25620447 43.2023698,6.44524015 L43.2023698,14.5240153 C43.2023698,15.6963823 42.248246,16.6687245 41.0664336,16.6687245 C39.9063058,16.6687245 38.9304973,15.713051 38.9304973,14.5240153 L38.9304973,6.44524015 Z" id="Shape" fill="#E6F0FA"></path>
                <path d="M26.7381363,6.90045662 C25.6342929,6.90045662 24.7523003,7.24054272 24.1516796,7.6245109 C24.2112006,7.14180805 24.5520934,4.48145712 24.6116144,3.97681324 C24.5358604,3.97681324 30.1362426,3.97681324 30.9533032,3.97681324 C31.1643321,3.97681324 31.332073,3.83968175 31.353717,3.64769766 C31.391594,3.03334858 31.353717,1.16287504 31.353717,0.389453434 C31.353717,0.137131491 31.2563191,0.0219410386 30.9533032,0.0219410386 C28.9025353,0.0219410386 23.9406507,0 21.8898828,0 C21.397482,0 21.337961,0.345571357 21.2838511,0.713083753 C21.0944662,1.96372295 19.9419237,10.4768459 19.9040467,10.7291679 C19.8824028,10.9814898 19.9256907,11.0747392 20.1691856,11.2283265 C20.8130943,11.535501 22.1333776,12.0236891 22.4363935,12.1608206 C22.7772863,12.3144079 22.9666712,12.4679952 23.2913311,12.1004828 C24.1462686,11.1570181 24.8280543,10.6194627 25.8940208,10.6194627 C27.6634169,10.6194627 28.7131504,11.6726325 28.7023284,13.3182104 C28.6915064,14.9637883 27.479443,15.929194 26.0022407,15.929194 C24.8118213,15.929194 24.2707216,15.6000784 23.480716,15.0021851 C23.1181791,14.7334074 22.6420114,14.365895 22.3389955,14.0751762 C22.0522127,13.8228543 21.8628278,13.921589 21.462414,14.343954 C20.9104922,14.9199062 20.0934317,15.907253 19.5631539,16.4448084 C19.298015,16.7135861 19.2763711,16.9055702 19.5415099,17.196289 C20.1475416,17.8709759 20.7752173,18.4085313 21.5922779,18.9899689 C22.8800953,19.8950367 24.5791484,20.3283722 26.2132696,20.2954607 C29.7033629,20.2954607 33.0419482,17.6844771 33.0419482,13.5540766 C33.0473592,9.91734943 30.8234393,6.90045662 26.7381363,6.90045662 Z" id="Shape" fill="#E6F0FA"></path>
                <path d="M17.0581555,9.92504038 C18.3883183,8.55808628 18.8780853,6.68607283 18.583112,4.8524878 C18.2714421,2.98047435 16.9969347,1.399419 15.2382257,0.592421999 C13.4962134,-0.220064778 10.8191913,-0.18163635 9.27197268,0.614381101 C7.72475407,1.36648035 6.51703306,3.27692223 6.27771508,3.58434966 C6.17753546,3.72159405 6.2164942,3.95216462 6.3778947,4.08391923 C6.63390929,4.29802047 8.17556237,5.64850525 8.66532941,5.99436111 C8.921344,6.17003393 9.13283431,6.17003393 9.36658676,5.91750425 C9.6782567,5.61007682 10.2682034,4.95130376 10.5965699,4.66583543 C11.0863369,4.25959205 11.7096768,4.12783743 12.1048298,4.12783743 C13.023143,4.12783743 13.7856212,4.53408082 14.0805945,5.3246085 C14.3533057,6.06023842 14.158512,7.00447981 13.4739513,7.44366185 C12.9285289,7.81147681 11.9489948,7.96519052 11.3423515,8.05851671 C10.4796937,8.17380199 10.4629971,8.51965785 10.4240383,8.83257505 C10.3628175,9.37057306 10.3461208,10.4520588 10.3850796,11.1108319 C10.4240383,11.6104015 11.0306816,11.7860743 11.6150627,11.8629311 C12.1994439,11.9617471 12.6725143,11.939788 13.1789779,12.1319301 C14.0416358,12.4393576 14.5091407,13.4824149 14.3700023,14.3497995 C14.230864,15.2391431 13.4127304,15.8155695 12.5333759,15.9308548 C11.5928006,16.0461401 10.774667,15.4477546 10.1847203,14.7944713 C9.88974701,14.4650847 9.36102123,13.8666992 9.14953092,13.6196593 C8.99369595,13.4439865 8.73768136,13.5208433 8.52619104,13.6416184 C8.19225897,13.8337606 6.09961797,15.2611022 5.81021017,15.4752034 C5.65437521,15.6289171 5.61541646,15.7661615 5.73229269,15.9363446 C6.14414225,16.611587 6.63390929,17.3417271 7.21829042,18.0169695 C7.82493369,18.7306403 8.62637067,19.2905974 9.48902852,19.6968408 C12.2272715,20.9704687 15.7279928,20.157982 17.5868813,17.8248274 C19.4847286,15.4642239 19.2843694,12.0276244 17.0581555,9.92504038 Z" id="Shape" fill="#E6F0FA"></path>
                <path d="M7.08041958,11.3344515 L7.08041958,8.96046855 C7.08041958,8.64766138 6.92882199,8.41305601 6.70142561,8.41305601 L4.36249136,8.41305601 L4.36249136,5.70392248 C4.36249136,5.48607463 4.21089377,5.27381262 3.99973998,5.21236836 C3.7885862,5.15092409 3.54494721,5.23471173 3.40959222,5.40787284 L0.101516243,9.84303164 C-0.0338387478,10.0217786 -0.0338387478,10.256384 0.101516243,10.4295451 L3.40959222,14.8870473 C3.50704782,15.0266933 3.67488801,15.1048951 3.8264856,15.1048951 C3.88604179,15.1048951 3.94018379,15.1048951 3.97808319,15.0825517 C4.18923697,15.0211075 4.34083456,14.8088455 4.34083456,14.5909976 L4.34083456,11.9433084 L6.49027182,11.9433084 C6.95047879,11.9433084 7.08041958,11.6696021 7.08041958,11.3344515 Z" id="Shape" fill="#0F81E8" opacity="0.6"></path>
            </g>
            <path d="M53.3022837,7.70733173 C52.5450683,7.40083981 51.9185722,6.96815183 51.4227764,6.40925481 C50.9269807,5.85035778 50.5258429,5.19231148 50.219351,4.43509615 C50.3996403,3.94831487 50.688099,3.53816273 51.0847356,3.2046274 C51.4813722,2.87109208 51.9275817,2.58714059 52.4233774,2.35276442 C52.9191732,2.11838825 53.4465116,1.92908726 54.0054087,1.78485577 C54.5643057,1.64062428 55.1051657,1.51442362 55.6280048,1.40625 C55.7361784,1.44230787 55.7902644,1.44230787 55.7902644,1.40625 C55.7902644,1.37019213 55.8353361,1.38822079 55.9254808,1.46033654 C56.5745225,1.26201824 57.3227121,1.06821008 58.1700721,0.87890625 C59.0174321,0.689602419 59.9188654,0.621994922 60.874399,0.676081731 C61.0006016,0.603965986 61.1538453,0.563401487 61.3341346,0.554387019 C61.514424,0.545372551 61.703725,0.540865385 61.9020433,0.540865385 C62.1003616,0.540865385 62.2896626,0.536358218 62.4699519,0.52734375 C62.6502413,0.518329282 62.8034849,0.486779117 62.9296875,0.432692308 C63.0378611,0.558894862 63.2001191,0.635516692 63.4164663,0.662560096 C63.6328136,0.689603501 63.8581719,0.784253996 64.0925481,0.946514423 C64.1646638,0.964543359 64.1646638,0.932993194 64.0925481,0.851862981 C64.0204323,0.770732767 64.0294467,0.712139603 64.1195913,0.676081731 C64.3539675,0.676081731 64.5612972,0.730167728 64.7415865,0.838341346 C64.9218759,0.946514964 65.0886411,1.06820846 65.241887,1.20342548 C65.395133,1.3386425 65.5393623,1.460336 65.6745793,1.56850962 C65.8097963,1.67668323 65.9585328,1.73076923 66.1207933,1.73076923 C66.2830537,1.92908753 66.4768619,2.11388136 66.7022236,2.28515625 C66.9275853,2.45643114 67.1439293,2.63221064 67.351262,2.8125 C67.5585948,2.99278936 67.7298671,3.19110469 67.8650841,3.40745192 C68.0003012,3.62379916 68.0679087,3.86718615 68.0679087,4.13762019 C68.0498797,4.24579381 68.085937,4.30889414 68.1760817,4.32692308 C68.2662264,4.34495201 68.3293267,4.39903801 68.3653846,4.48918269 C68.3834136,5.15625334 68.2797487,5.73317064 68.054387,6.21995192 C67.8290253,6.7067332 67.5450738,7.15294268 67.202524,7.55859375 C66.8599742,7.96424482 66.4948938,8.34735397 66.1072716,8.70793269 C65.7196495,9.06851142 65.3635834,9.45612773 65.0390625,9.87079327 C65.2554097,10.1412273 65.5033039,10.3891215 65.7827524,10.6144832 C66.0622009,10.8398449 66.3461524,11.060696 66.6346154,11.2770433 C66.9230784,11.4933905 67.1980155,11.723256 67.4594351,11.9666466 C67.7208547,12.2100373 67.9417058,12.4849744 68.1219952,12.7914663 C68.176082,12.89964 68.2932683,12.9717546 68.4735577,13.0078125 C68.5276445,13.2241597 68.6042663,13.4450109 68.7034255,13.6703726 C68.8025846,13.8957343 68.8972351,14.1120783 68.9873798,14.3194111 C69.0775245,14.5267438 69.1316105,14.7115377 69.1496394,14.8737981 C69.1676684,15.0360585 69.1225967,15.1712735 69.0144231,15.2794471 C69.1406256,15.3515629 69.2127403,15.464242 69.2307692,15.617488 C69.2487982,15.7707339 69.2487982,15.8924274 69.2307692,15.9825721 C68.8341326,16.4693534 68.5637026,16.811898 68.4194712,17.0102163 C68.2752397,17.2085346 68.1670677,17.352764 68.0949519,17.4429087 C68.0228362,17.5330533 67.9507215,17.6141823 67.8786058,17.6862981 C67.80649,17.7584138 67.644232,17.9026431 67.3918269,18.1189904 C66.4362933,18.6959163 65.4402095,19.2142405 64.4035457,19.6739784 C63.3668818,20.1337162 62.2896691,20.4447107 61.171875,20.6069712 C61.0817303,20.7331737 60.9510225,20.8368385 60.7797476,20.9179688 C60.6084727,20.999099 60.4146645,21.0667065 60.1983173,21.1207933 C59.9819701,21.1748801 59.7521046,21.2199517 59.5087139,21.2560096 C59.2653233,21.2920675 59.0444721,21.3281248 58.8461538,21.3641827 C58.7560092,21.3281248 58.7064303,21.2695317 58.6974159,21.1884014 C58.6884014,21.1072712 58.6388226,21.0486781 58.5486779,21.0126202 C58.5306489,21.2289674 58.4359985,21.3416466 58.2647236,21.3506611 C58.0934487,21.3596755 57.8816118,21.319111 57.6292067,21.2289663 C57.3768016,21.1388217 57.115386,21.012621 56.8449519,20.8503606 C56.5745179,20.6881002 56.3401452,20.5348565 56.1418269,20.390625 C56.0516822,20.5528854 55.9390031,20.7241578 55.8037861,20.9044471 C55.668569,21.0847365 55.5288469,21.2109371 55.3846154,21.2830529 C55.1322103,21.246995 54.9474165,21.219952 54.8302284,21.2019231 C54.7130403,21.1838941 54.6003611,21.2289658 54.4921875,21.3371394 C54.347956,21.2650237 54.239784,21.1884018 54.1676683,21.1072716 L53.9513221,20.8638822 C53.8792064,20.782752 53.7980774,20.7106373 53.7079327,20.6475361 C53.617788,20.5844348 53.482573,20.5258416 53.3022837,20.4717548 C53.3383415,20.3816101 53.3112985,20.241888 53.2211538,20.0525841 C53.1310092,19.8632803 53.0048085,19.7506011 52.8425481,19.7145433 C52.9326928,19.5703118 52.8966354,19.385518 52.734375,19.1601562 C52.5721146,18.9347945 52.4459139,18.6778861 52.3557692,18.3894231 C52.3737982,18.2632205 52.3873197,18.1325127 52.3963341,17.9972957 C52.4053486,17.8620787 52.4233773,17.735878 52.4504207,17.6186899 C52.4774641,17.5015018 52.5180286,17.397837 52.5721154,17.3076923 C52.6262022,17.2175476 52.7163455,17.1544473 52.8425481,17.1183894 C52.8245191,16.8840133 52.7524045,16.6586549 52.6262019,16.4423077 C52.7884623,16.3161051 52.8966343,16.1583543 52.9507212,15.9690505 C53.004808,15.7797466 53.0543868,15.5859385 53.0994591,15.3876202 C53.1445315,15.1893019 53.2031246,14.9954937 53.2752404,14.8061899 C53.3473561,14.6168861 53.4645425,14.4591352 53.6268029,14.3329327 C53.590745,14.2788459 53.5546877,14.2337742 53.5186298,14.1977163 C53.4825719,14.1616585 53.4645433,14.0985581 53.4645433,14.0084135 C53.7349773,13.5576901 53.9242783,13.1745809 54.0324519,12.8590745 C54.1406255,12.5435681 54.2262617,12.2370808 54.289363,11.9396034 C54.3524643,11.6421259 54.4200718,11.3221171 54.4921875,10.9795673 C54.5643032,10.6370175 54.7085326,10.2043295 54.9248798,9.68149038 C54.9068509,9.35696953 54.9429082,9.06851088 55.0330529,8.81610577 C55.1231976,8.56370066 55.2178481,8.31580651 55.3170072,8.07241587 C55.4161664,7.82902523 55.4927882,7.57211674 55.546875,7.30168269 C55.6009618,7.03124865 55.5919475,6.715747 55.5198317,6.35516827 C55.2133398,6.39122614 54.9924887,6.49939814 54.8572716,6.6796875 C54.7220546,6.85997686 54.6364184,7.10336385 54.6003606,7.40985577 C54.4381002,7.55408726 54.2307705,7.62169476 53.9783654,7.61268029 C53.7259603,7.60366582 53.500602,7.63521599 53.3022837,7.70733173 Z M65.2013221,12.9266827 C64.5162225,12.548075 63.8897264,12.3227167 63.3218149,12.250601 C62.7539034,12.1784852 62.2130434,12.1829924 61.6992188,12.2641226 C61.1853941,12.3452528 60.6941129,12.457932 60.2253606,12.6021635 C59.7566082,12.746395 59.2878629,12.8545669 58.8191106,12.9266827 C58.5847344,13.5396665 58.3413474,14.2157415 58.0889423,14.9549279 C57.8365372,15.6941143 57.5931502,16.4152609 57.358774,17.1183894 C58.0078157,17.0282447 58.6027617,16.8930297 59.1436298,16.7127404 C59.6844979,16.532451 60.2073292,16.3296285 60.7121394,16.1042668 C61.2169496,15.8789051 61.712738,15.6535468 62.1995192,15.4281851 C62.6863005,15.2028234 63.1911032,14.9909866 63.7139423,14.7926683 C63.7680291,14.576321 63.8852154,14.4050487 64.0655048,14.2788462 C64.2457942,14.1526436 64.4260808,14.0309501 64.6063702,13.913762 C64.7866596,13.7965739 64.9399032,13.6658661 65.0661058,13.5216346 C65.1923083,13.3774031 65.23738,13.1790878 65.2013221,12.9266827 Z M63.3082933,4.46213942 C62.1904992,4.42608155 61.0907506,4.52523921 60.0090144,4.75961538 C58.9272782,4.99399156 58.0168306,5.33653621 57.2776442,5.78725962 C57.638223,6.09375153 58.0123178,6.36418152 58.3999399,6.59855769 C58.787562,6.83293386 59.0805279,7.14843552 59.2788462,7.54507212 C60.1442351,7.20252233 60.9014391,6.76532718 61.5504808,6.23347356 C62.1995225,5.70161994 62.7854541,5.11118113 63.3082933,4.46213942 Z M74.4230769,17.9567308 C74.2247586,18.6778882 74.0489791,19.2232554 73.8957332,19.5928486 C73.7424872,19.9624418 73.5126217,20.3455509 73.2061298,20.7421875 C72.9717536,20.7061296 72.8094956,20.7331726 72.719351,20.8233173 C72.6292063,20.913462 72.5300486,20.994591 72.421875,21.0667067 C72.2596146,21.1027646 72.1424282,21.1027646 72.0703125,21.0667067 C71.9981968,21.0306489 71.9350964,20.9900844 71.8810096,20.945012 C71.8269228,20.8999397 71.7593153,20.854868 71.6781851,20.8097957 C71.5970549,20.7647233 71.4753614,20.7421875 71.313101,20.7421875 C71.2770431,20.597956 71.2364786,20.462741 71.1914063,20.3365385 C71.1463339,20.2103359 71.0246404,20.1652642 70.8263221,20.2013221 C70.86238,20.0570906 70.8713943,19.9353971 70.8533654,19.836238 C70.8353364,19.7370788 70.8128006,19.6469355 70.7857572,19.5658053 C70.7587138,19.4846751 70.736178,19.4035461 70.718149,19.3224159 C70.7001201,19.2412857 70.7091344,19.1376208 70.7451923,19.0114183 C70.6550476,19.0114183 70.582933,18.9483179 70.5288462,18.8221154 C70.4747593,18.6959128 70.411659,18.5697122 70.3395433,18.4435096 C70.3936301,18.1189888 70.4477161,17.8125014 70.5018029,17.5240385 C70.5558897,17.2355755 70.6234972,16.9651455 70.7046274,16.7127404 C70.7857576,16.4603353 70.8533651,16.207934 70.9074519,15.9555288 C70.9615387,15.7031237 70.9344957,15.4417081 70.8263221,15.171274 C70.8984379,15.2253608 70.9525239,15.2118393 70.9885817,15.1307091 C71.0246396,15.0495789 71.0516826,14.9414069 71.0697115,14.8061899 C71.0877405,14.6709729 71.0967548,14.5357579 71.0967548,14.4005409 C71.0967548,14.2653238 71.0877405,14.1526447 71.0697115,14.0625 C71.2500009,13.5937477 71.3987374,13.1114808 71.5159255,12.6156851 C71.6331136,12.1198893 71.7412856,11.6286082 71.8404447,11.1418269 C71.9396039,10.6550456 72.0432687,10.177286 72.1514423,9.70853365 C72.2596159,9.23978131 72.4038453,8.80709333 72.5841346,8.41045673 C72.7824529,8.37439886 73.0033041,8.39693469 73.2466947,8.4780649 C73.4900854,8.55919512 73.6388218,8.66285995 73.6929087,8.7890625 C74.161661,8.42848377 74.5763203,7.99128863 74.936899,7.47746394 C75.2974778,6.96363926 75.6670654,6.46334378 76.0456731,5.9765625 C76.4242807,5.48978122 76.8434472,5.05709324 77.3031851,4.67848558 C77.762923,4.29987791 78.3443474,4.07451959 79.047476,4.00240385 C79.4080547,4.27283789 79.8091925,4.54777505 80.2509014,4.82722356 C80.6926104,5.10667207 81.0576909,5.47175255 81.3461538,5.92247596 C81.4903853,5.99459171 81.6120788,6.07121354 81.711238,6.15234375 C81.8103971,6.23347396 81.9320906,6.31911013 82.0763221,6.40925481 L82.0763221,6.73377404 C82.2926694,6.93209234 82.4684488,7.16195783 82.6036659,7.4233774 C82.7388829,7.68479698 82.8605764,7.9642413 82.96875,8.26171875 L83.2932692,9.15414663 C83.4014428,9.45162408 83.5276435,9.73557557 83.671875,10.0060096 C83.6358171,10.0961543 83.6177885,10.1727761 83.6177885,10.2358774 C83.6177885,10.2989787 83.63131,10.3665862 83.6583534,10.4387019 C83.6853968,10.5108177 83.7079326,10.5829323 83.7259615,10.6550481 C83.7439905,10.7271638 83.7439905,10.8263215 83.7259615,10.952524 C83.6718747,11.7457972 83.4149662,12.3858149 82.9552284,12.8725962 C82.4954905,13.3593774 81.941109,13.7605152 81.2920673,14.0760216 C80.6430256,14.391528 79.948922,14.6574508 79.2097356,14.8737981 C78.4705492,15.0901453 77.8034886,15.324518 77.2085337,15.5769231 C77.2085337,15.6490388 77.2400838,15.6850962 77.3031851,15.6850962 C77.3662864,15.6850962 77.3888222,15.7301678 77.3707933,15.8203125 C77.8034877,16.0907465 78.1460324,16.3070905 78.3984375,16.469351 C78.6508426,16.6316114 78.8897224,16.7668264 79.1150841,16.875 C79.3404458,16.9831736 79.5838328,17.0778241 79.8452524,17.1589543 C80.106672,17.2400845 80.4717525,17.334735 80.9405048,17.4429087 C81.4092572,17.5510823 81.7743376,17.6367184 82.0357572,17.6998197 C82.2971768,17.762921 82.5360566,17.817007 82.7524038,17.8620793 C82.9687511,17.9071517 83.1896022,17.943209 83.4149639,17.9702524 C83.6403256,17.9972958 83.9603345,18.028846 84.375,18.0649038 C84.5372604,18.2271643 84.6769826,18.4209724 84.7941707,18.6463341 C84.9113588,18.8716958 84.9879806,19.0970542 85.0240385,19.3224159 C85.0600963,19.5477776 85.0691107,19.7641216 85.0510817,19.9714543 C85.0330528,20.1787871 84.9699525,20.3455523 84.8617788,20.4717548 C84.8798078,20.5258416 84.9203723,20.5483774 84.9834736,20.539363 C85.0465748,20.5303485 85.1141823,20.5348557 85.1862981,20.5528846 C85.0781245,20.6250004 84.9879811,20.7151437 84.9158654,20.8233173 L84.6995192,21.1478365 C84.6274035,21.2560102 84.5462745,21.3506607 84.4561298,21.4317909 C84.3659851,21.5129211 84.2397845,21.5624999 84.077524,21.5805288 C83.518627,21.7968761 82.815509,21.8103976 81.968149,21.6210937 C81.120789,21.4317899 80.0480834,21.0847381 78.75,20.5799279 C78.1009583,20.3275228 77.5736198,20.1066716 77.1679688,19.9173678 C76.7623177,19.728064 76.4107587,19.538763 76.1132813,19.3494591 C75.8158038,19.1601553 75.5453738,18.9573328 75.3019832,18.7409856 C75.0585925,18.5246383 74.7656267,18.2632227 74.4230769,17.9567308 Z M78.2902644,8.68088942 C78.0919461,8.9693524 77.871095,9.23076806 77.6277043,9.46514423 C77.3843137,9.6995204 77.149941,9.93840023 76.9245793,10.1817909 C76.6992176,10.4251815 76.4963951,10.6956115 76.3161058,10.9930889 C76.1358164,11.2905664 76.0096157,11.6376182 75.9375,12.0342548 C76.5685128,11.9621391 77.2265591,11.7863596 77.9116587,11.5069111 C78.5967582,11.2274625 79.2457902,10.9615397 79.858774,10.7091346 C79.7866583,10.1502376 79.5928501,9.69952094 79.2773438,9.35697115 C78.9618374,9.01442136 78.6328142,8.78906304 78.2902644,8.68088942 Z M100.817308,12.65625 C100.799279,12.8725972 100.817307,13.0799269 100.871394,13.2782452 C100.925481,13.4765635 100.993089,13.6703716 101.074219,13.8596755 C101.155349,14.0489793 101.231971,14.2427875 101.304087,14.4411058 C101.376202,14.6394241 101.430288,14.8377394 101.466346,15.0360577 C101.502404,15.2884628 101.502404,15.5634 101.466346,15.8608774 C101.430288,16.1583549 101.367188,16.4468135 101.277043,16.726262 C101.186899,17.0057105 101.069712,17.2581119 100.925481,17.4834736 C100.781249,17.7088353 100.609977,17.8756004 100.411659,17.983774 C100.159254,18.3082949 99.8527662,18.5606962 99.4921875,18.7409856 C99.1316088,18.9212749 98.7980785,19.1376189 98.4915865,19.390024 C98.2932682,19.5162266 98.0724171,19.6063699 97.8290264,19.6604567 C97.5856358,19.7145435 97.3377416,19.7686295 97.0853365,19.8227163 C96.8870182,19.93089 96.6526456,20.0435691 96.3822115,20.1607572 C96.1117775,20.2779453 95.8323332,20.3861173 95.5438702,20.4852764 C95.2554072,20.5844356 94.9669486,20.6565503 94.6784856,20.7016226 C94.3900226,20.7466949 94.1376213,20.7602164 93.921274,20.7421875 C93.3804059,20.9405058 92.8530675,21.0712136 92.3392428,21.1343149 C91.8254181,21.1974162 91.225965,21.1568517 90.5408654,21.0126202 C89.8918237,21.1027649 89.2923705,21.0757219 88.742488,20.9314904 C88.1926054,20.7872589 87.7058314,20.5573934 87.2821514,20.241887 C86.8584714,19.9263806 86.4888838,19.5477787 86.1733774,19.1060697 C85.857871,18.6643608 85.6009625,18.2001226 85.4026442,17.7133413 C85.2584127,16.685692 85.2944701,15.7527085 85.5108173,14.914363 C85.7271645,14.0760174 86.038159,13.3007848 86.4438101,12.5886418 C86.8494612,11.8764988 87.3136993,11.2184525 87.8365385,10.6144832 C88.3593776,10.0105138 88.8641803,9.420075 89.3509615,8.84314904 C89.4591352,8.87920691 89.5447713,8.87469974 89.6078726,8.8296274 C89.6709739,8.78455506 89.729567,8.72145473 89.7836538,8.64032452 C89.8377407,8.55919431 89.8963338,8.48257248 89.9594351,8.41045673 C90.0225364,8.33834099 90.0991582,8.29326932 90.1893029,8.27524038 C90.3155054,8.00480634 90.5002993,7.80198385 90.7436899,7.66676683 C90.9870805,7.5315498 91.1808887,7.33774165 91.3251202,7.08533654 C91.4873806,7.04927867 91.6225956,6.99519267 91.7307692,6.92307692 C91.8389428,6.85096118 91.9426077,6.76983218 92.0417668,6.6796875 C92.140926,6.58954282 92.2445908,6.50390666 92.3527644,6.42277644 C92.460938,6.34164623 92.5871387,6.28305306 92.7313702,6.24699519 L92.7313702,5.94951923 C93.055891,5.80528774 93.2947709,5.63852258 93.4480168,5.44921875 C93.6012628,5.25991492 93.7860566,5.03004943 94.0024038,4.75961538 C94.1646643,4.74158645 94.2953721,4.73257212 94.3945313,4.73257212 C94.4936904,4.73257212 94.6424269,4.71454345 94.8407452,4.67848558 C94.9849767,4.42608047 95.1156845,4.23677948 95.2328726,4.11057692 C95.3500607,3.98437437 95.5258402,3.84915938 95.7602163,3.70492788 C95.9765636,3.8131015 96.2154434,3.88521617 96.476863,3.92127404 C96.7382826,3.95733191 96.968148,4.07451824 97.1664663,4.27283654 C97.1844953,4.4531259 97.2385813,4.59284806 97.328726,4.69200721 C97.4188706,4.79116636 97.5180283,4.88130969 97.6262019,4.9624399 C97.7343755,5.04357012 97.8380404,5.12920628 97.9371995,5.21935096 C98.0363587,5.30949564 98.1039662,5.4356963 98.140024,5.59795673 C98.2121398,5.61598567 98.2617186,5.60697133 98.288762,5.57091346 C98.3158054,5.53485559 98.3653843,5.52584126 98.4375,5.54387019 C98.4915868,5.7962753 98.5546871,5.96304046 98.6268029,6.04417067 C98.6989186,6.12530089 98.7710333,6.28305171 98.843149,6.51742788 C98.7530044,6.69771725 98.6853969,6.88251107 98.6403245,7.0718149 C98.5952522,7.26111873 98.482573,7.4008409 98.3022837,7.49098558 C98.2842547,7.61718813 98.320312,7.68479563 98.4104567,7.6938101 C98.5006014,7.70282456 98.5546874,7.7524034 98.5727163,7.84254808 C98.5907453,8.0048085 98.5637023,8.12199483 98.4915865,8.19411058 C98.924281,8.89723909 99.3118973,9.64092156 99.6544471,10.4251803 C99.9969969,11.209439 100.384613,11.9531215 100.817308,12.65625 Z M97.436899,15.2253606 C97.5090148,15.0270423 97.6036653,14.8647843 97.7208534,14.7385817 C97.8380415,14.6123792 97.9056489,14.4230782 97.9236779,14.1706731 C97.8335332,14.0264416 97.7794472,13.9137624 97.7614183,13.8326322 C97.7433893,13.751502 97.734375,13.6207942 97.734375,13.4405048 C97.3377384,12.8816078 96.9951938,12.2821546 96.7067308,11.6421274 C96.4182678,11.0021002 96.0937518,10.402647 95.7331731,9.84375 C95.6971152,9.91586575 95.6340149,9.98798041 95.5438702,10.0600962 C95.4537255,10.1322119 95.3545678,10.1141832 95.2463942,10.0060096 C95.2103364,10.1502411 95.147236,10.2539059 95.0570913,10.3170072 C94.9669467,10.3801085 94.867789,10.4071515 94.7596154,10.398137 C94.6514418,10.3891226 94.5387626,10.3620796 94.4215745,10.3170072 C94.3043864,10.2719349 94.2007216,10.2133417 94.1105769,10.141226 C93.5877378,10.5558915 93.0649065,10.9615365 92.5420673,11.3581731 C92.0192282,11.7548097 91.5504828,12.2145407 91.1358173,12.7373798 C91.0637016,12.7734377 91.0186299,12.7869592 91.000601,12.7779447 C90.982572,12.7689302 90.928486,12.7824517 90.8383413,12.8185096 C90.6941099,13.1610594 90.5183304,13.4720539 90.3109976,13.7515024 C90.1036648,14.0309509 89.9008423,14.3149024 89.702524,14.6033654 C89.5042057,14.8918284 89.3329334,15.1983157 89.1887019,15.5228365 C89.0444704,15.8473574 88.9633414,16.2259594 88.9453125,16.6586538 C89.2518044,16.911059 89.6123777,17.0643026 90.0270433,17.1183894 C90.4417088,17.1724762 90.8698896,17.1814906 91.3115986,17.1454327 C91.7533075,17.1093748 92.1859955,17.0507817 92.6096755,16.9696514 C93.0333555,16.8885212 93.425479,16.8479567 93.7860577,16.8479567 C94.543273,16.6676674 95.192305,16.4287875 95.7331731,16.1313101 C96.2740412,15.8338326 96.8419441,15.5318525 97.436899,15.2253606 Z M118.233173,12.65625 C118.215144,12.8725972 118.233173,13.0799269 118.28726,13.2782452 C118.341346,13.4765635 118.408954,13.6703716 118.490084,13.8596755 C118.571214,14.0489793 118.647836,14.2427875 118.719952,14.4411058 C118.792068,14.6394241 118.846154,14.8377394 118.882212,15.0360577 C118.918269,15.2884628 118.918269,15.5634 118.882212,15.8608774 C118.846154,16.1583549 118.783053,16.4468135 118.692909,16.726262 C118.602764,17.0057105 118.485578,17.2581119 118.341346,17.4834736 C118.197115,17.7088353 118.025842,17.8756004 117.827524,17.983774 C117.575119,18.3082949 117.268632,18.5606962 116.908053,18.7409856 C116.547474,18.9212749 116.213944,19.1376189 115.907452,19.390024 C115.709134,19.5162266 115.488282,19.6063699 115.244892,19.6604567 C115.001501,19.7145435 114.753607,19.7686295 114.501202,19.8227163 C114.302884,19.93089 114.068511,20.0435691 113.798077,20.1607572 C113.527643,20.2779453 113.248199,20.3861173 112.959736,20.4852764 C112.671273,20.5844356 112.382814,20.6565503 112.094351,20.7016226 C111.805888,20.7466949 111.553487,20.7602164 111.337139,20.7421875 C110.796271,20.9405058 110.268933,21.0712136 109.755108,21.1343149 C109.241283,21.1974162 108.64183,21.1568517 107.956731,21.0126202 C107.307689,21.1027649 106.708236,21.0757219 106.158353,20.9314904 C105.608471,20.7872589 105.121697,20.5573934 104.698017,20.241887 C104.274337,19.9263806 103.904749,19.5477787 103.589243,19.1060697 C103.273736,18.6643608 103.016828,18.2001226 102.81851,17.7133413 C102.674278,16.685692 102.710335,15.7527085 102.926683,14.914363 C103.14303,14.0760174 103.454024,13.3007848 103.859675,12.5886418 C104.265327,11.8764988 104.729565,11.2184525 105.252404,10.6144832 C105.775243,10.0105138 106.280046,9.420075 106.766827,8.84314904 C106.875001,8.87920691 106.960637,8.87469974 107.023738,8.8296274 C107.086839,8.78455506 107.145432,8.72145473 107.199519,8.64032452 C107.253606,8.55919431 107.312199,8.48257248 107.3753,8.41045673 C107.438402,8.33834099 107.515024,8.29326932 107.605168,8.27524038 C107.731371,8.00480634 107.916165,7.80198385 108.159555,7.66676683 C108.402946,7.5315498 108.596754,7.33774165 108.740986,7.08533654 C108.903246,7.04927867 109.038461,6.99519267 109.146635,6.92307692 C109.254808,6.85096118 109.358473,6.76983218 109.457632,6.6796875 C109.556791,6.58954282 109.660456,6.50390666 109.76863,6.42277644 C109.876803,6.34164623 110.003004,6.28305306 110.147236,6.24699519 L110.147236,5.94951923 C110.471756,5.80528774 110.710636,5.63852258 110.863882,5.44921875 C111.017128,5.25991492 111.201922,5.03004943 111.418269,4.75961538 C111.58053,4.74158645 111.711237,4.73257212 111.810397,4.73257212 C111.909556,4.73257212 112.058292,4.71454345 112.256611,4.67848558 C112.400842,4.42608047 112.53155,4.23677948 112.648738,4.11057692 C112.765926,3.98437437 112.941706,3.84915938 113.176082,3.70492788 C113.392429,3.8131015 113.631309,3.88521617 113.892728,3.92127404 C114.154148,3.95733191 114.384013,4.07451824 114.582332,4.27283654 C114.600361,4.4531259 114.654447,4.59284806 114.744591,4.69200721 C114.834736,4.79116636 114.933894,4.88130969 115.042067,4.9624399 C115.150241,5.04357012 115.253906,5.12920628 115.353065,5.21935096 C115.452224,5.30949564 115.519832,5.4356963 115.555889,5.59795673 C115.628005,5.61598567 115.677584,5.60697133 115.704627,5.57091346 C115.731671,5.53485559 115.78125,5.52584126 115.853365,5.54387019 C115.907452,5.7962753 115.970553,5.96304046 116.042668,6.04417067 C116.114784,6.12530089 116.186899,6.28305171 116.259014,6.51742788 C116.16887,6.69771725 116.101262,6.88251107 116.05619,7.0718149 C116.011118,7.26111873 115.898438,7.4008409 115.718149,7.49098558 C115.70012,7.61718813 115.736177,7.68479563 115.826322,7.6938101 C115.916467,7.70282456 115.970553,7.7524034 115.988582,7.84254808 C116.006611,8.0048085 115.979568,8.12199483 115.907452,8.19411058 C116.340146,8.89723909 116.727763,9.64092156 117.070313,10.4251803 C117.412862,11.209439 117.800479,11.9531215 118.233173,12.65625 Z M114.852764,15.2253606 C114.92488,15.0270423 115.019531,14.8647843 115.136719,14.7385817 C115.253907,14.6123792 115.321514,14.4230782 115.339543,14.1706731 C115.249399,14.0264416 115.195313,13.9137624 115.177284,13.8326322 C115.159255,13.751502 115.15024,13.6207942 115.15024,13.4405048 C114.753604,12.8816078 114.411059,12.2821546 114.122596,11.6421274 C113.834133,11.0021002 113.509617,10.402647 113.149038,9.84375 C113.112981,9.91586575 113.04988,9.98798041 112.959736,10.0600962 C112.869591,10.1322119 112.770433,10.1141832 112.66226,10.0060096 C112.626202,10.1502411 112.563101,10.2539059 112.472957,10.3170072 C112.382812,10.3801085 112.283654,10.4071515 112.175481,10.398137 C112.067307,10.3891226 111.954628,10.3620796 111.83744,10.3170072 C111.720252,10.2719349 111.616587,10.2133417 111.526442,10.141226 C111.003603,10.5558915 110.480772,10.9615365 109.957933,11.3581731 C109.435094,11.7548097 108.966348,12.2145407 108.551683,12.7373798 C108.479567,12.7734377 108.434495,12.7869592 108.416466,12.7779447 C108.398437,12.7689302 108.344351,12.7824517 108.254207,12.8185096 C108.109975,13.1610594 107.934196,13.4720539 107.726863,13.7515024 C107.51953,14.0309509 107.316708,14.3149024 107.118389,14.6033654 C106.920071,14.8918284 106.748799,15.1983157 106.604567,15.5228365 C106.460336,15.8473574 106.379207,16.2259594 106.361178,16.6586538 C106.66767,16.911059 107.028243,17.0643026 107.442909,17.1183894 C107.857574,17.1724762 108.285755,17.1814906 108.727464,17.1454327 C109.169173,17.1093748 109.601861,17.0507817 110.025541,16.9696514 C110.449221,16.8885212 110.841344,16.8479567 111.201923,16.8479567 C111.959138,16.6676674 112.60817,16.4287875 113.149038,16.1313101 C113.689907,15.8338326 114.25781,15.5318525 114.852764,15.2253606 Z M136.189904,19.7956731 C135.324515,19.8317309 134.562804,19.8137023 133.904748,19.7415865 C133.246691,19.6694708 132.602167,19.4981985 131.971154,19.2277644 C131.935096,19.2097355 131.899039,19.1646638 131.862981,19.0925481 C131.826923,19.0204323 131.790866,18.9663463 131.754808,18.9302885 C131.646634,18.8762017 131.515926,18.8536658 131.36268,18.8626803 C131.209434,18.8716948 131.078727,18.8581733 130.970553,18.8221154 C130.826321,18.7499996 130.600963,18.6102775 130.294471,18.4029447 C129.987979,18.1956119 129.708535,18.0018038 129.45613,17.8215144 C129.131609,17.5691093 128.825122,17.316708 128.536659,17.0643029 C128.248196,16.8118978 127.995794,16.5414678 127.779447,16.2530048 C127.72536,16.1808891 127.653246,16.1403246 127.563101,16.1313101 C127.472956,16.1222956 127.391827,16.0997598 127.319712,16.0637019 C126.796872,16.3882228 126.35517,16.7938678 125.994591,17.280649 C125.634013,17.7674303 125.291468,18.2632186 124.966947,18.7680288 C124.642426,19.2728391 124.299882,19.7505987 123.939303,20.2013221 C123.578724,20.6520455 123.118993,20.9945902 122.560096,21.2289663 C122.397836,21.2289663 122.253606,21.2019233 122.127404,21.1478365 C122.001201,21.0937497 121.884015,21.0261422 121.775841,20.945012 C121.667668,20.8638818 121.559496,20.78726 121.451322,20.7151442 C121.343148,20.6430285 121.225962,20.5889425 121.09976,20.5528846 C121.09976,20.3365374 121.059195,20.1382221 120.978065,19.9579327 C120.896935,19.7776433 120.815806,19.606371 120.734675,19.4441106 C120.653545,19.2818502 120.594952,19.1240993 120.558894,18.9708534 C120.522836,18.8176074 120.558894,18.6688709 120.667067,18.5246394 C120.558894,18.4164658 120.396636,18.2992795 120.180288,18.1730769 C120.288462,18.0649033 120.338041,17.9657456 120.329026,17.875601 C120.320012,17.7854563 120.297476,17.695313 120.261418,17.6051683 C120.22536,17.5150236 120.19381,17.4158659 120.166767,17.3076923 C120.139723,17.1995187 120.162259,17.0913467 120.234375,16.9831731 C120.32452,16.9831731 120.432692,16.9651444 120.558894,16.9290865 C120.450721,16.784855 120.401142,16.6992189 120.410156,16.6721755 C120.419171,16.6451321 120.396635,16.6045676 120.342548,16.5504808 C120.30649,16.4423072 120.324519,16.3746997 120.396635,16.3476562 C120.46875,16.3206128 120.540865,16.2890627 120.612981,16.2530048 C120.685097,15.3695869 120.83834,14.5492826 121.072716,13.7920673 C121.307093,13.034852 121.568508,12.304691 121.856971,11.6015625 C122.145434,10.898434 122.429386,10.1863017 122.708834,9.46514423 C122.988283,8.74398678 123.218148,7.96875415 123.398438,7.13942308 C123.596756,6.94110478 123.754507,6.70673212 123.871695,6.43629808 C123.988883,6.16586403 124.115083,5.89543404 124.2503,5.625 C124.385518,5.35456596 124.538761,5.08864313 124.710036,4.82722356 C124.881311,4.56580398 125.120191,4.35396716 125.426683,4.19170673 C125.679088,4.20973567 125.904446,4.27734316 126.102764,4.39453125 C126.301083,4.51171934 126.54447,4.56129817 126.832933,4.54326923 C126.88702,4.63341391 126.936598,4.72355724 126.981671,4.81370192 C127.026743,4.9038466 127.085336,4.99398993 127.157452,5.08413462 L127.563101,5.00300481 C127.761419,5.16526523 127.937199,5.36808773 128.090445,5.61147837 C128.243691,5.85486901 128.347355,6.11177749 128.401442,6.38221154 C128.455529,6.65264558 128.446515,6.90955407 128.374399,7.15294471 C128.302283,7.39633535 128.131011,7.59014351 127.860577,7.734375 C127.878606,7.82451968 127.883113,7.89212718 127.874099,7.93719952 C127.865084,7.98227186 127.851563,8.02283636 127.833534,8.05889423 C127.815505,8.0949521 127.80649,8.13100944 127.80649,8.16706731 C127.80649,8.20312518 127.833533,8.25721118 127.88762,8.32932692 C127.527041,8.59976097 127.256611,8.97836295 127.076322,9.46514423 C126.896033,9.95192551 126.796875,10.3846135 126.778846,10.7632212 C126.995193,10.5468739 127.234073,10.3350371 127.495493,10.1277043 C127.756912,9.92037156 128.027342,9.71754907 128.306791,9.51923077 C128.586239,9.32091247 128.856669,9.13161148 129.118089,8.95132212 C129.379509,8.77103275 129.618388,8.59074609 129.834736,8.41045673 C130.42969,7.86958864 131.002101,7.43239349 131.551983,7.09885817 C132.101866,6.76532285 132.68329,6.39122803 133.296274,5.9765625 C133.440506,5.94050463 133.553185,5.93599746 133.634315,5.96304087 C133.715445,5.99008427 133.801081,6.02163444 133.891226,6.05769231 C133.891226,5.94951869 133.859676,5.88641836 133.796575,5.86838942 C133.733473,5.85036049 133.710937,5.77824582 133.728966,5.65204327 C133.9994,5.57992752 134.233773,5.49429136 134.432091,5.39513221 C134.63041,5.29597306 134.846754,5.20132257 135.08113,5.11117788 C135.24339,5.27343831 135.396634,5.44020347 135.540865,5.61147837 C135.685097,5.78275326 135.883412,5.88641809 136.135817,5.92247596 C136.225962,6.12079426 136.334134,6.26953075 136.460337,6.3686899 C136.586539,6.46784905 136.71274,6.56249955 136.838942,6.65264423 C136.965145,6.74278891 137.077824,6.85096091 137.176983,6.97716346 C137.276142,7.10336602 137.334735,7.30168134 137.352764,7.57211538 C137.280649,7.69831794 137.204027,7.83353293 137.122897,7.97776442 C137.041766,8.12199591 136.965145,8.29326824 136.893029,8.49158654 C136.53245,8.81610739 136.16737,9.10456605 135.797776,9.35697115 C135.428183,9.60937626 135.054088,9.85276325 134.675481,10.0871394 C134.296873,10.3215156 133.909257,10.5558883 133.51262,10.7902644 C133.115984,11.0246406 132.710339,11.3040849 132.295673,11.6286058 C132.205528,11.7548083 132.092849,11.8674875 131.957632,11.9666466 C131.822415,12.0658058 131.682693,12.1649634 131.538462,12.2641226 C131.39423,12.3632817 131.259015,12.4669466 131.132812,12.5751202 C131.00661,12.6832938 130.907452,12.8094945 130.835337,12.953726 C130.78125,12.9717549 130.727164,12.9807692 130.673077,12.9807692 C130.61899,12.9807692 130.564904,12.9897836 130.510817,13.0078125 C130.45673,13.1340151 130.371094,13.2331727 130.253906,13.3052885 C130.136718,13.3774042 130.060096,13.4765619 130.024038,13.6027644 C130.294473,14.1796904 130.646031,14.6213927 131.078726,14.9278846 C131.51142,15.2343765 131.998194,15.4552277 132.539062,15.5904447 C133.079931,15.7256617 133.665862,15.7977764 134.296875,15.8067909 C134.927888,15.8158053 135.585934,15.8203125 136.271034,15.8203125 C136.343149,15.8022836 136.3747,15.7617191 136.365685,15.6986178 C136.356671,15.6355165 136.397235,15.6129807 136.48738,15.6310096 C136.920074,15.7752411 137.253605,15.9780636 137.487981,16.2394832 C137.722357,16.5009027 138.001801,16.7578112 138.326322,17.0102163 C138.290264,17.6953159 138.082935,18.2632189 137.704327,18.7139423 C137.325719,19.1646657 136.820917,19.525239 136.189904,19.7956731 Z M144.897837,20.4717548 C144.393026,20.6340152 143.843152,20.7962732 143.248197,20.9585337 C142.653242,21.1207941 142.058296,21.2019231 141.463341,21.2019231 C140.561895,21.2019231 139.849762,20.9765648 139.326923,20.5258413 C139.236778,20.327523 139.155649,20.1923081 139.083534,20.1201923 C139.029447,20.0480766 138.979868,19.9714547 138.934796,19.8903245 C138.889723,19.8091943 138.858173,19.6965151 138.840144,19.5522837 C138.623797,19.2998785 138.452525,19.0069127 138.326322,18.6733774 C138.20012,18.3398421 138.114483,17.9972974 138.069411,17.6457332 C138.024339,17.2941689 138.015324,16.9381028 138.042368,16.577524 C138.069411,16.2169453 138.128004,15.8744007 138.218149,15.5498798 C138.254207,15.4777641 138.276743,15.4056494 138.285757,15.3335337 C138.294772,15.2614179 138.308293,15.1802889 138.326322,15.0901442 C138.398438,14.8016812 138.47506,14.5222369 138.55619,14.2518029 C138.63732,13.9813688 138.749999,13.7469962 138.894231,13.5486779 C138.822115,13.3864175 138.822115,13.2061308 138.894231,13.0078125 C138.966347,12.8094942 139.047476,12.6292075 139.13762,12.4669471 C139.390025,11.7818475 139.601862,11.2004231 139.773137,10.7226563 C139.944412,10.2448894 140.120191,9.77163696 140.300481,9.30288462 C140.606973,8.49158248 140.895431,7.68930685 141.165865,6.89603365 C141.436299,6.10276046 141.679686,5.24639883 141.896034,4.32692308 C142.040265,4.2367784 142.148437,4.17367806 142.220553,4.13762019 C142.328727,4.10156232 142.41887,4.07451932 142.490986,4.05649038 C142.815506,4.21875081 143.194108,4.37650164 143.626803,4.5297476 C144.059497,4.68299355 144.420071,4.75961538 144.708534,4.75961538 C144.852765,4.84976007 144.942908,4.91736756 144.978966,4.9624399 C145.015024,5.00751224 145.051082,5.04807674 145.087139,5.08413462 C145.285458,5.31851079 145.45673,5.55739061 145.600962,5.80078125 C145.745193,6.04417189 145.790265,6.36418071 145.736178,6.76081731 C145.628004,6.92307773 145.546875,7.00420673 145.492788,7.00420673 C145.402644,7.36478546 145.307993,7.67127278 145.208834,7.92367788 C145.109675,8.17608299 145.00601,8.42848431 144.897837,8.68088942 C144.771634,8.95132347 144.654448,9.22175346 144.546274,9.4921875 C144.4381,9.76262154 144.347957,10.0961519 144.275841,10.4927885 C144.203726,10.5829331 144.154147,10.6640621 144.127103,10.7361779 C144.10006,10.8082936 144.06851,10.8894226 144.032452,10.9795673 C143.996394,11.069712 143.95583,11.1643625 143.910757,11.2635216 C143.865685,11.3626808 143.798077,11.4483169 143.707933,11.5204327 C143.653846,11.989185 143.56821,12.367787 143.451022,12.65625 C143.333834,12.944713 143.21214,13.2331716 143.085938,13.5216346 C142.86959,14.0444738 142.675782,14.5673051 142.504507,15.0901442 C142.333232,15.6129834 142.229567,16.2079294 142.19351,16.875 C142.283654,16.8389421 142.36929,16.8209135 142.450421,16.8209135 L142.680288,16.8209135 C142.842549,16.8209135 143.03185,16.8479565 143.248197,16.9020433 C143.789065,16.6135803 144.379504,16.442308 145.019531,16.3882212 C145.659558,16.3341343 146.295069,16.298077 146.926082,16.2800481 L147.683293,16.2800481 C147.935698,16.2800481 148.170071,16.2620194 148.386418,16.2259615 C148.548679,16.3161062 148.652344,16.3656851 148.697416,16.3746995 C148.742488,16.383714 148.810096,16.3882212 148.90024,16.3882212 C149.026443,16.3882212 149.134615,16.3972355 149.22476,16.4152644 C149.441107,16.6135827 149.648437,16.757812 149.846755,16.8479567 C150.045073,16.9381014 150.252403,17.0192304 150.46875,17.0913462 C150.667068,17.1634619 150.860876,17.2400837 151.05018,17.3212139 C151.239484,17.4023442 151.424278,17.5150233 151.604567,17.6592548 L151.79387,18.8221154 C151.920073,18.9843758 151.974159,19.0925478 151.95613,19.1466346 C151.95613,19.2908661 151.920072,19.3990381 151.847957,19.4711538 L151.902043,19.7686298 C151.631609,19.8227166 151.446815,19.8858169 151.347656,19.9579327 C151.248497,20.0300484 151.153847,20.1111774 151.063702,20.2013221 C150.91947,20.2193511 150.815806,20.2283654 150.752704,20.2283654 L150.576923,20.2283654 C150.324518,20.2283654 150.018031,20.273437 149.657452,20.3635817 C149.170671,20.2013213 148.665868,20.1201923 148.143029,20.1201923 C147.944711,20.1201923 147.737381,20.1292066 147.521034,20.1472356 L146.871995,20.2013221 C146.655648,20.23738 146.434797,20.264423 146.209435,20.2824519 C145.984073,20.3004809 145.754208,20.3094952 145.519832,20.3094952 L144.897837,20.4717548 Z M161.177885,13.6838942 C161.051682,13.7920678 160.94351,13.9227757 160.853365,14.0760216 C160.763221,14.2292676 160.673077,14.3870184 160.582933,14.5492788 C160.492788,14.7475971 160.39363,14.9368981 160.285457,15.1171875 C160.177283,15.2974769 160.042068,15.4597349 159.879808,15.6039663 C159.789663,15.8744004 159.69952,16.0862372 159.609375,16.2394832 C159.51923,16.3927291 159.375001,16.5685086 159.176683,16.7668269 C158.996393,17.4879844 158.57272,18.2722313 157.905649,19.1195913 C157.88762,19.2818518 157.838041,19.4396026 157.756911,19.5928486 C157.675781,19.7460945 157.590145,19.894831 157.5,20.0390625 C157.463942,20.0931493 157.427885,20.1517425 157.391827,20.2148438 C157.355769,20.277945 157.328726,20.3275239 157.310697,20.3635817 L157.256611,20.6340144 C157.166466,20.7782459 157.067308,20.9044466 156.959135,21.0126202 L156.661659,21.3100962 C156.625601,21.364183 156.5625,21.4362976 156.472356,21.5264423 L156.066707,21.6887019 C154.750594,21.5084126 153.948319,20.8052946 153.659856,19.5793269 L153.686899,19.3088942 C153.722957,19.2187495 153.754507,19.1240991 153.78155,19.0249399 C153.808594,18.9257808 153.840144,18.8221159 153.876202,18.7139423 C153.948318,18.4615372 154.033954,18.2091359 154.133113,17.9567308 C154.232272,17.7043257 154.381009,17.4789673 154.579327,17.280649 C154.615385,17.1544465 154.696514,16.951624 154.822716,16.6721755 C154.948919,16.392727 155.165263,15.9735605 155.471755,15.4146635 C155.72416,14.981969 155.922475,14.6394243 156.066707,14.3870192 C156.210938,14.1346141 156.328125,13.9362988 156.418269,13.7920673 C156.23798,13.5036043 156.021636,13.2421887 155.769231,13.0078125 C155.534855,12.5570891 155.332032,12.1244011 155.160757,11.7097356 C154.989482,11.29507 154.858774,10.9254824 154.76863,10.6009615 C154.750601,10.3665854 154.723558,10.16827 154.6875,10.0060096 C154.651442,9.84374919 154.615385,9.67247686 154.579327,9.4921875 C154.52524,9.2938692 154.480168,9.09555388 154.444111,8.89723558 C154.408053,8.69891728 154.390024,8.49158762 154.390024,8.27524038 C154.299879,8.14903783 154.245793,8.02283717 154.227764,7.89663462 L154.281851,7.62620192 C154.335938,7.49999937 154.344952,7.33323421 154.308894,7.12590144 C154.272836,6.91856867 154.227765,6.70673185 154.173678,6.49038462 C154.13762,6.31009525 154.097056,6.11177993 154.051983,5.89543269 C154.006911,5.67908546 153.993389,5.46274147 154.011418,5.24639423 C154.029447,5.030047 154.08804,4.8272245 154.1872,4.63792067 C154.286359,4.44861684 154.453124,4.28185168 154.6875,4.13762019 L155.147236,4.11057692 C155.309496,4.2007216 155.467247,4.28635777 155.620493,4.36748798 C155.773739,4.44861819 155.922475,4.53425436 156.066707,4.62439904 C156.265025,4.71454372 156.454326,4.80468705 156.634615,4.89483173 C156.814905,4.98497641 157.004206,5.10216274 157.202524,5.24639423 L157.391827,5.625 L157.743389,5.92247596 L157.743389,6.21995192 C157.761418,6.29206767 157.770433,6.39122533 157.770433,6.51742788 C157.770433,6.75180406 157.80649,6.89603338 157.878606,6.95012019 L157.986779,7.27463942 C157.986779,7.52704453 158.013822,7.76592435 158.067909,7.99128606 C158.121995,8.21664776 158.176081,8.42848459 158.230168,8.62680288 C158.284255,8.82512118 158.338341,9.03245084 158.392428,9.24879808 C158.446515,9.46514531 158.455529,9.69951797 158.419471,9.95192308 C158.527645,9.89783627 158.617788,9.83473594 158.689904,9.76262019 C158.725962,9.72656232 158.762019,9.69951932 158.798077,9.68149038 C158.834135,9.66346145 158.870192,9.63641845 158.90625,9.60036058 L160.501803,7.43689904 L160.447716,7.16646635 L161.015625,6.62560096 C161.159856,6.48136947 161.299579,6.34615448 161.434796,6.21995192 C161.570013,6.09374937 161.682692,5.95853438 161.772837,5.81430288 L162.070313,5.59795673 C162.647238,4.69650992 163.467543,4.13762127 164.53125,3.92127404 L164.909856,3.8671875 L165.018029,4.21875 C165.090145,4.4170683 165.238881,4.59735496 165.464243,4.75961538 C165.689604,4.92187581 165.928484,5.07511947 166.180889,5.21935096 L166.424279,5.38161058 C166.514424,5.56189994 166.559495,5.69711493 166.559495,5.78725962 C166.559495,5.8774043 166.550481,5.95853329 166.532452,6.03064904 L166.640625,6.30108173 C166.496394,6.7337762 166.320614,7.04927785 166.113281,7.24759615 C165.905948,7.44591445 165.703126,7.62620111 165.504808,7.78846154 C165.342547,7.93269303 165.193811,8.06340086 165.058594,8.18058894 C164.923377,8.29777703 164.819712,8.44651352 164.747596,8.62680288 L164.558293,8.84314904 C164.179686,9.05949627 163.936299,9.34795493 163.828125,9.70853365 L163.746995,10.0330529 L163.422476,10.0330529 C163.404447,10.0330529 163.363883,10.064603 163.300781,10.1277043 C163.23768,10.1908056 163.143029,10.3485564 163.016827,10.6009615 C162.890624,10.7812509 162.800481,10.8984372 162.746394,10.952524 L162.611178,11.0877404 C162.593149,11.1598561 162.570613,11.2274636 162.54357,11.2905649 C162.516526,11.3536662 162.484976,11.430288 162.448918,11.5204327 C162.214542,11.7548089 162.070313,11.9305884 162.016226,12.0477764 C161.962139,12.1649645 161.899039,12.2956724 161.826923,12.4399038 C161.754807,12.5841353 161.6872,12.7238575 161.624099,12.8590745 C161.560997,12.9942915 161.457332,13.1340137 161.313101,13.2782452 L161.177885,13.6838942 Z M169.155649,15.8473558 C168.993389,15.8834136 168.876202,15.9780641 168.804087,16.1313101 C168.731971,16.2845561 168.664363,16.4423069 168.601262,16.6045673 C168.538161,16.7668277 168.47506,16.9155642 168.411959,17.0507812 C168.348858,17.1859983 168.254207,17.2536058 168.128005,17.2536058 C168.109976,17.3978373 168.060397,17.5240379 167.979267,17.6322115 C167.898137,17.7403852 167.821515,17.8530643 167.749399,17.9702524 C167.677283,18.0874405 167.623197,18.2136412 167.587139,18.3488582 C167.551082,18.4840752 167.56911,18.641826 167.641226,18.8221154 C167.496994,18.930289 167.406851,19.0835327 167.370793,19.281851 C167.334735,19.4801693 167.294171,19.6694703 167.249099,19.8497596 C167.204026,20.030049 167.127404,20.1832926 167.019231,20.3094952 C166.911057,20.4356977 166.712742,20.4897837 166.424279,20.4717548 C166.370192,20.5438706 166.361178,20.5889422 166.397236,20.6069712 C166.433293,20.6250001 166.460336,20.6881004 166.478365,20.796274 C166.280047,20.7602162 166.131311,20.7737377 166.032151,20.8368389 C165.932992,20.8999402 165.811299,20.9405047 165.667067,20.9585337 C165.324518,20.85036 165.040566,20.661059 164.815204,20.390625 C164.589843,20.120191 164.391527,19.8182108 164.220252,19.4846755 C164.048978,19.1511402 163.895734,18.8131027 163.760517,18.4705529 C163.6253,18.1280031 163.494592,17.8305301 163.368389,17.578125 C163.422476,17.3798067 163.431491,17.1859985 163.395433,16.9966947 C163.359375,16.8073909 163.296274,16.6496401 163.20613,16.5234375 C164.089548,14.6484281 165.054081,12.6472462 166.09976,10.5198317 C167.145438,8.39241725 168.137015,6.29207767 169.074519,4.21875 C169.489185,4.38101043 169.899337,4.56580425 170.304988,4.77313702 C170.710639,4.98046979 171.080227,5.21934961 171.413762,5.48978365 C171.747297,5.7602177 172.031249,6.07121218 172.265625,6.42277644 C172.500001,6.7743407 172.653245,7.16646418 172.725361,7.59915865 C172.689303,7.70733227 172.648738,7.74789677 172.603666,7.72085337 C172.558594,7.69380996 172.518029,7.70733146 172.481971,7.76141827 C172.554087,7.85156295 172.594651,7.91466328 172.603666,7.95072115 C172.61268,7.98677903 172.61268,8.02283636 172.603666,8.05889423 C172.594651,8.0949521 172.590144,8.14453093 172.590144,8.20763221 C172.590144,8.27073349 172.617187,8.35636965 172.671274,8.46454327 C172.599158,8.44651433 172.549579,8.45552867 172.522536,8.49158654 C172.495493,8.52764441 172.436899,8.52764441 172.346755,8.49158654 C172.418871,8.68990484 172.441406,8.85216283 172.414363,8.97836538 C172.38732,9.10456794 172.346755,9.2172471 172.292668,9.31640625 C172.238581,9.4155654 172.19351,9.52373739 172.157452,9.64092548 C172.121394,9.75811357 172.130408,9.90685006 172.184495,10.0871394 C172.130408,10.0871394 172.089844,10.1006609 172.0628,10.1277043 C172.035757,10.1547477 172.013221,10.1817907 171.995192,10.2088341 C171.977163,10.2358775 171.954628,10.2629205 171.927584,10.2899639 C171.900541,10.3170073 171.859976,10.3215145 171.805889,10.3034856 C171.859976,10.7001222 171.878005,11.0967528 171.859976,11.4933894 C171.841947,11.890026 171.828426,12.2911638 171.819411,12.6968149 C171.810397,13.102466 171.814904,13.5261396 171.832933,13.9678486 C171.850962,14.4095575 171.914062,14.8647813 172.022236,15.3335337 C172.671277,14.954926 173.189601,14.468152 173.577224,13.8731971 C173.964846,13.2782422 174.280347,12.6111816 174.523738,11.8719952 C174.767129,11.1328088 174.951922,10.3395475 175.078125,9.4921875 C175.204328,8.64482749 175.339543,7.77945153 175.483774,6.89603365 C175.646034,6.73377323 175.772235,6.5354579 175.86238,6.30108173 C175.952524,6.06670556 176.033653,5.8188114 176.105769,5.55739183 L176.322115,4.77313702 C176.394231,4.51171744 176.484374,4.27283762 176.592548,4.05649038 C176.862982,4.09254826 177.092848,4.17818442 177.282151,4.31340144 C177.471455,4.44861846 177.647235,4.59284779 177.809495,4.74609375 C177.971756,4.89933971 178.143028,5.04356904 178.323317,5.17878606 C178.503607,5.31400308 178.728965,5.39963924 178.999399,5.43569712 C179.215746,5.74218903 179.414062,6.03966202 179.594351,6.328125 C179.77464,6.61658798 179.891827,6.9230753 179.945913,7.24759615 C179.855769,7.39182764 179.788161,7.55408564 179.743089,7.734375 C179.698017,7.91466436 179.648438,8.09495102 179.594351,8.27524038 C179.540264,8.45552975 179.468149,8.62229491 179.378005,8.77554087 C179.28786,8.92878682 179.161659,9.05949465 178.999399,9.16766827 C178.945312,9.63642061 178.877705,10.0646014 178.796575,10.4522236 C178.715444,10.8398457 178.634315,11.2229548 178.553185,11.6015625 C178.472055,11.9801702 178.404447,12.3722936 178.350361,12.7779447 C178.296274,13.1835958 178.278245,13.6298053 178.296274,14.1165865 C178.152043,14.5312521 177.998799,14.9729544 177.836538,15.4417067 C177.674278,15.9104591 177.548077,16.3341327 177.457933,16.7127404 C177.16947,16.9471166 176.944111,17.2265609 176.781851,17.5510817 C176.619591,17.8756026 176.448318,18.2001186 176.268029,18.5246394 C176.195913,18.5967552 176.150841,18.6147838 176.132813,18.578726 C176.114784,18.5426681 176.051683,18.5156251 175.94351,18.4975962 C175.961539,18.5697119 175.961539,18.6237979 175.94351,18.6598558 C175.925481,18.6959136 175.902945,18.7274638 175.875901,18.7545072 C175.848858,18.7815506 175.830829,18.8221151 175.821815,18.8762019 C175.8128,18.9302887 175.826322,19.0024034 175.86238,19.0925481 C175.609975,19.2007217 175.384616,19.3539654 175.186298,19.5522837 C174.98798,19.750602 174.776143,19.9308886 174.550781,20.093149 C174.32542,20.2554095 174.05499,20.3635815 173.739483,20.4176683 C173.423977,20.4717551 173.013825,20.4086547 172.509014,20.2283654 C171.769828,19.6874973 171.116289,19.0655083 170.548377,18.3623798 C169.980466,17.6592513 169.516228,16.8209183 169.155649,15.8473558 Z" id="Brooklyn" fill="#0F81E8"></path>
        </g>
    </g>
</svg>