<?xml version="1.0" encoding="UTF-8"?>
<svg width="208px" height="26px" viewBox="0 0 208 26" version="1.1" xmlns="http://www.w3.org/2000/svg" xmlns:xlink="http://www.w3.org/1999/xlink">
    <!-- Generator: Sketch 53.2 (72643) - https://sketchapp.com -->
    <title>logo_350BK</title>
    <desc>Created with Sketch.</desc>
    <g id="Page-1" stroke="none" stroke-width="1" fill="none" fill-rule="evenodd">
        <g id="logo_350BK" fill="#FFFFFF">
            <g id="350" transform="translate(-0.000000, 1.000000)" fill-rule="nonzero">
                <path d="M47.4545455,0 C43.2511,0 39.8181818,3.45425361 39.8181818,7.6918138 L39.8181818,16.3081862 C39.8181818,20.5521669 43.2511,24 47.4545455,24 C51.6579909,24 55.0909091,20.5457464 55.0909091,16.3081862 L55.0909091,7.69823435 C55.0909091,3.45425361 51.6579909,0 47.4545455,0 Z M44.9863524,7.44783307 C44.9863524,6.09309791 46.0888955,4.96950241 47.4545455,4.96950241 C48.8201954,4.96950241 49.9227385,6.07383628 49.9227385,7.44783307 L49.9227385,16.7833066 C49.9227385,18.1380417 48.8201954,19.2616372 47.4545455,19.2616372 C46.1139533,19.2616372 44.9863524,18.1573034 44.9863524,16.7833066 L44.9863524,7.44783307 Z" id="Shape"></path>
                <path d="M30.897402,7.97386099 C29.6218496,7.97386099 28.6026582,8.36684937 27.9086076,8.81054593 C27.9773874,8.25275597 28.371308,5.17857268 28.4400877,4.59542863 C28.3525498,4.59542863 34.8241026,4.59542863 35.7682615,4.59542863 C36.0121171,4.59542863 36.2059511,4.43696557 36.2309619,4.2151173 C36.2747309,3.5052028 36.2309619,1.34376672 36.2309619,0.45003508 C36.2309619,0.158463056 36.1184132,0.025354089 35.7682615,0.025354089 C33.3984852,0.025354089 27.664752,0 25.2949756,0 C24.7259792,0 24.6571994,0.399326902 24.5946723,0.824007892 C24.3758276,2.26919097 23.0440008,12.1065775 23.0002318,12.3981495 C22.975221,12.6897215 23.0252426,12.7974764 23.3066145,12.974955 C24.0506867,13.3299123 25.5763475,13.8940408 25.9264991,14.0525038 C26.3204197,14.2299824 26.5392645,14.4074611 26.914427,13.9827801 C27.9023549,12.8925543 28.6901961,12.2713791 29.9219795,12.2713791 C31.9666151,12.2713791 33.1796404,13.4883753 33.167135,15.389932 C33.1546296,17.2914887 31.754023,18.4070686 30.0470337,18.4070686 C28.6714379,18.4070686 28.0461671,18.0267573 27.1332718,17.3358584 C26.7143403,17.0252708 26.164102,16.6005898 25.8139504,16.2646481 C25.4825569,15.9730761 25.2637121,16.0871695 24.8010117,16.5752357 C24.1632355,17.2407805 23.2190766,18.3817145 22.6063112,19.0028897 C22.2999285,19.3134773 22.2749177,19.5353256 22.5813004,19.8712672 C23.2816037,20.6509055 24.0069178,21.2720807 24.9510767,21.943964 C26.4392212,22.9898202 28.4025715,23.4905635 30.2908893,23.4525323 C34.323886,23.4525323 38.1818068,20.4353957 38.1818068,15.6624885 C38.1880595,11.4600482 35.6181965,7.97386099 30.897402,7.97386099 Z" id="Shape"></path>
                <path d="M19.7116464,11.4689356 C21.2487234,9.88934414 21.8146764,7.7261286 21.4738183,5.60731924 C21.1136664,3.44410369 19.6409023,1.6171064 17.6086164,0.684576532 C15.5956244,-0.254297077 12.5021766,-0.209890893 10.7142795,0.709951494 C8.92638248,1.57904396 7.53079376,3.78666569 7.25424853,4.14191516 C7.13848542,4.30050867 7.18350441,4.56694578 7.37001165,4.71919555 C7.66585074,4.96660144 9.44731651,6.52716163 10.0132695,6.92681728 C10.3091086,7.12981698 10.5534974,7.12981698 10.8236114,6.83800492 C11.1837633,6.48275544 11.8654794,5.72150657 12.2449252,5.39163206 C12.8108782,4.92219525 13.5311821,4.76994548 13.9878033,4.76994548 C15.0489652,4.76994548 15.9300512,5.23938228 16.2709092,6.15288093 C16.5860422,7.00294217 16.3609472,8.09406555 15.5698993,8.6015648 C14.9396334,9.02659542 13.8077273,9.20422016 13.1067173,9.31206375 C12.1098682,9.4452823 12.0905744,9.84493796 12.0455554,10.2065312 C11.9748113,10.8282178 11.9555174,12.0779347 12.0005364,12.8391835 C12.0455554,13.4164639 12.7465654,13.6194636 13.4218503,13.708276 C14.0971351,13.8224633 14.6437943,13.7970884 15.2290412,14.0191193 C16.2258903,14.3743687 16.7661181,15.5796795 16.605336,16.5819905 C16.4445539,17.6096765 15.4991551,18.2757692 14.4830122,18.4089878 C13.3961251,18.5422063 12.4507263,17.8507386 11.7690102,17.0958335 C11.4281521,16.715209 10.8171801,16.0237413 10.5727913,15.738273 C10.3927153,15.5352733 10.0968762,15.6240856 9.85248743,15.7636479 C9.46661036,15.9856789 7.04844743,17.6350514 6.71402065,17.8824573 C6.53394468,18.060082 6.48892569,18.2186756 6.62398266,18.4153315 C7.09989771,19.1956116 7.66585074,20.0393291 8.3411356,20.8196092 C9.04214559,21.6442955 9.96825055,22.291357 10.9650996,22.7607938 C14.1292915,24.2325416 18.1745694,23.293668 20.3226184,20.5975783 C22.5156864,17.8697698 22.2841602,13.8985882 19.7116464,11.4689356 Z" id="Shape"></path>
                <path d="M8.18181818,13.0975884 L8.18181818,10.3543192 C8.18181818,9.99285315 8.00663874,9.72175361 7.74386959,9.72175361 L5.04110113,9.72175361 L5.04110113,6.59119931 C5.04110113,6.33946402 4.86592169,6.09418347 4.62192176,6.02318121 C4.37792183,5.95217895 4.09638345,6.04900022 3.93997324,6.2490975 L0.117307659,11.3741699 C-0.039102553,11.5807219 -0.039102553,11.8518215 0.117307659,12.0519188 L3.93997324,17.2028102 C4.05258859,17.3641789 4.24653725,17.4545455 4.42171669,17.4545455 C4.49053718,17.4545455 4.55310127,17.4545455 4.59689613,17.4287265 C4.84089606,17.3577242 5.01607549,17.1124436 5.01607549,16.8607084 L5.01607549,13.8011563 L7.49986966,13.8011563 C8.03166438,13.8011563 8.18181818,13.4848735 8.18181818,13.0975884 Z" id="Shape" opacity="0.6"></path>
            </g>
            <path d="M61.59375,8.90625 C60.7187456,8.55208156 59.9947945,8.05208656 59.421875,7.40625 C58.8489555,6.76041344 58.3854184,6.00000437 58.03125,5.125 C58.2395844,4.56249719 58.5729144,4.08854359 59.03125,3.703125 C59.4895856,3.31770641 60.0052055,2.98958469 60.578125,2.71875 C61.1510445,2.44791531 61.7604134,2.2291675 62.40625,2.0625 C63.0520866,1.8958325 63.6770803,1.75000062 64.28125,1.625 C64.4062506,1.66666688 64.46875,1.66666688 64.46875,1.625 C64.46875,1.58333312 64.5208328,1.60416625 64.625,1.6875 C65.3750038,1.45833219 66.2395784,1.23437609 67.21875,1.015625 C68.1979216,0.796873906 69.2395778,0.718749687 70.34375,0.78125 C70.4895841,0.69791625 70.6666656,0.651041719 70.875,0.640625 C71.0833344,0.630208281 71.3020822,0.625 71.53125,0.625 C71.7604178,0.625 71.9791656,0.619791719 72.1875,0.609375 C72.3958344,0.598958281 72.5729159,0.562500312 72.71875,0.5 C72.8437506,0.645834062 73.0312488,0.734374844 73.28125,0.765625 C73.5312512,0.796875156 73.7916653,0.906249062 74.0625,1.09375 C74.1458337,1.11458344 74.1458337,1.07812547 74.0625,0.984375 C73.9791663,0.890624531 73.9895828,0.822916875 74.09375,0.78125 C74.3645847,0.78125 74.6041656,0.843749375 74.8125,0.96875 C75.0208344,1.09375062 75.2135408,1.23437422 75.390625,1.390625 C75.5677092,1.54687578 75.7343742,1.68749937 75.890625,1.8125 C76.0468758,1.93750062 76.2187491,2 76.40625,2 C76.5937509,2.22916781 76.817707,2.44270734 77.078125,2.640625 C77.338543,2.83854266 77.5885405,3.04166562 77.828125,3.25 C78.0677095,3.45833437 78.2656242,3.68749875 78.421875,3.9375 C78.5781258,4.18750125 78.65625,4.46874844 78.65625,4.78125 C78.6354166,4.90625062 78.6770828,4.97916656 78.78125,5 C78.8854172,5.02083344 78.9583331,5.08333281 79,5.1875 C79.0208334,5.95833719 78.901043,6.62499719 78.640625,7.1875 C78.380207,7.75000281 78.0520853,8.26562266 77.65625,8.734375 C77.2604147,9.20312734 76.8385439,9.64583125 76.390625,10.0625 C75.9427061,10.4791687 75.5312519,10.9270809 75.15625,11.40625 C75.4062512,11.7187516 75.6927067,12.005207 76.015625,12.265625 C76.3385433,12.526043 76.666665,12.7812487 77,13.03125 C77.333335,13.2812512 77.6510402,13.5468736 77.953125,13.828125 C78.2552098,14.1093764 78.5104156,14.4270816 78.71875,14.78125 C78.7812503,14.9062506 78.9166656,14.9895831 79.125,15.03125 C79.1875003,15.2812512 79.2760411,15.536457 79.390625,15.796875 C79.5052089,16.057293 79.6145828,16.3072905 79.71875,16.546875 C79.8229172,16.7864595 79.8854166,16.9999991 79.90625,17.1875 C79.9270834,17.3750009 79.8750006,17.5312494 79.75,17.65625 C79.8958341,17.7395837 79.9791666,17.8697908 80,18.046875 C80.0208334,18.2239592 80.0208334,18.3645828 80,18.46875 C79.5416644,19.0312528 79.2291675,19.4270822 79.0625,19.65625 C78.8958325,19.8854178 78.7708337,20.0520828 78.6875,20.15625 C78.6041663,20.2604172 78.5208337,20.3541662 78.4375,20.4375 C78.3541663,20.5208337 78.1666681,20.6874987 77.875,20.9375 C76.7708278,21.60417 75.6197977,22.2031223 74.421875,22.734375 C73.2239523,23.2656277 71.9791731,23.6249991 70.6875,23.8125 C70.5833328,23.9583341 70.4322927,24.0781245 70.234375,24.171875 C70.0364573,24.2656255 69.8125012,24.3437497 69.5625,24.40625 C69.3124988,24.4687503 69.0468764,24.5208331 68.765625,24.5625 C68.4843736,24.6041669 68.2291678,24.6458331 68,24.6875 C67.8958328,24.6458331 67.8385417,24.5781255 67.828125,24.484375 C67.8177083,24.3906245 67.7604172,24.3229169 67.65625,24.28125 C67.6354166,24.5312512 67.5260427,24.6614583 67.328125,24.671875 C67.1302073,24.6822917 66.8854181,24.6354172 66.59375,24.53125 C66.3020819,24.4270828 66.0000016,24.2812509 65.6875,24.09375 C65.3749984,23.9062491 65.1041678,23.7291675 64.875,23.5625 C64.7708328,23.7500009 64.6406258,23.9479156 64.484375,24.15625 C64.3281242,24.3645844 64.1666675,24.5104162 64,24.59375 C63.7083319,24.5520831 63.4947923,24.5208334 63.359375,24.5 C63.2239577,24.4791666 63.0937506,24.5312494 62.96875,24.65625 C62.8020825,24.5729162 62.6770837,24.4843755 62.59375,24.390625 L62.34375,24.109375 C62.2604163,24.0156245 62.1666672,23.932292 62.0625,23.859375 C61.9583328,23.786458 61.8020844,23.7187503 61.59375,23.65625 C61.6354169,23.5520828 61.6041672,23.3906261 61.5,23.171875 C61.3958328,22.9531239 61.2500009,22.8229169 61.0625,22.78125 C61.1666672,22.6145825 61.1250009,22.401043 60.9375,22.140625 C60.7499991,21.880207 60.6041672,21.583335 60.5,21.25 C60.5208334,21.1041659 60.5364583,20.9531258 60.546875,20.796875 C60.5572917,20.6406242 60.5781248,20.4947923 60.609375,20.359375 C60.6406252,20.2239577 60.6874997,20.1041672 60.75,20 C60.8125003,19.8958328 60.9166659,19.8229169 61.0625,19.78125 C61.0416666,19.5104153 60.9583341,19.2500012 60.8125,19 C61.0000009,18.8541659 61.1249997,18.6718761 61.1875,18.453125 C61.2500003,18.2343739 61.3072914,18.0104178 61.359375,17.78125 C61.4114586,17.5520822 61.4791663,17.3281261 61.5625,17.109375 C61.6458337,16.8906239 61.7812491,16.7083341 61.96875,16.5625 C61.9270831,16.4999997 61.8854169,16.4479169 61.84375,16.40625 C61.8020831,16.3645831 61.78125,16.2916672 61.78125,16.1875 C62.0937516,15.6666641 62.3124994,15.2239602 62.4375,14.859375 C62.5625006,14.4947898 62.661458,14.1406267 62.734375,13.796875 C62.807292,13.4531233 62.8854163,13.0833353 62.96875,12.6875 C63.0520837,12.2916647 63.2187488,11.7916697 63.46875,11.1875 C63.4479166,10.8124981 63.4895828,10.4791681 63.59375,10.1875 C63.6979172,9.89583187 63.8072911,9.60937641 63.921875,9.328125 C64.0364589,9.04687359 64.1249997,8.75000156 64.1875,8.4375 C64.2500003,8.12499844 64.2395837,7.76041875 64.15625,7.34375 C63.8020816,7.38541687 63.5468758,7.51041562 63.390625,7.71875 C63.2343742,7.92708437 63.1354169,8.20833156 63.09375,8.5625 C62.9062491,8.7291675 62.6666681,8.80729172 62.375,8.796875 C62.0833319,8.78645828 61.8229178,8.82291625 61.59375,8.90625 Z M75.34375,14.9375 C74.5520794,14.4999978 73.8281283,14.2395837 73.171875,14.15625 C72.5156217,14.0729162 71.890628,14.0781245 71.296875,14.171875 C70.703122,14.2656255 70.1354194,14.3958325 69.59375,14.5625 C69.0520806,14.7291675 68.5104194,14.8541662 67.96875,14.9375 C67.6979153,15.6458369 67.4166681,16.4270791 67.125,17.28125 C66.8333319,18.1354209 66.5520847,18.9687459 66.28125,19.78125 C67.0312538,19.6770828 67.7187469,19.5208344 68.34375,19.3125 C68.9687531,19.1041656 69.5729137,18.869793 70.15625,18.609375 C70.7395863,18.348957 71.3124972,18.088543 71.875,17.828125 C72.4375028,17.567707 73.0208303,17.3229178 73.625,17.09375 C73.6875003,16.8437487 73.8229156,16.6458341 74.03125,16.5 C74.2395844,16.3541659 74.4479156,16.2135423 74.65625,16.078125 C74.8645844,15.9427077 75.0416659,15.7916675 75.1875,15.625 C75.3333341,15.4583325 75.3854169,15.2291681 75.34375,14.9375 Z M73.15625,5.15625 C71.8645769,5.11458312 70.5937562,5.22916531 69.34375,5.5 C68.0937438,5.77083469 67.0416709,6.16666406 66.1875,6.6875 C66.6041687,7.04166844 67.0364561,7.35416531 67.484375,7.625 C67.9322939,7.89583469 68.2708322,8.26041437 68.5,8.71875 C69.500005,8.32291469 70.3749962,7.81771141 71.125,7.203125 C71.8750038,6.58853859 72.5520803,5.90625375 73.15625,5.15625 Z M86,20.75 C85.7708322,21.5833375 85.5677092,22.2135395 85.390625,22.640625 C85.2135408,23.0677105 84.9479184,23.5104144 84.59375,23.96875 C84.3229153,23.9270831 84.1354172,23.9583328 84.03125,24.0625 C83.9270828,24.1666672 83.8125006,24.2604162 83.6875,24.34375 C83.4999991,24.3854169 83.3645837,24.3854169 83.28125,24.34375 C83.1979163,24.3020831 83.1250003,24.2552086 83.0625,24.203125 C82.9999997,24.1510414 82.9218755,24.0989586 82.828125,24.046875 C82.7343745,23.9947914 82.5937509,23.96875 82.40625,23.96875 C82.3645831,23.8020825 82.3177086,23.6458341 82.265625,23.5 C82.2135414,23.3541659 82.0729178,23.3020831 81.84375,23.34375 C81.8854169,23.1770825 81.8958334,23.0364589 81.875,22.921875 C81.8541666,22.8072911 81.8281252,22.7031255 81.796875,22.609375 C81.7656248,22.5156245 81.7395834,22.4218755 81.71875,22.328125 C81.6979166,22.2343745 81.7083331,22.1145841 81.75,21.96875 C81.6458328,21.96875 81.5625003,21.8958341 81.5,21.75 C81.4374997,21.6041659 81.3645837,21.4583341 81.28125,21.3125 C81.3437503,20.9374981 81.4062497,20.583335 81.46875,20.25 C81.5312503,19.916665 81.6093745,19.6041681 81.703125,19.3125 C81.7968755,19.0208319 81.8749997,18.7291681 81.9375,18.4375 C82.0000003,18.1458319 81.9687506,17.8437516 81.84375,17.53125 C81.9270837,17.5937503 81.9895831,17.5781255 82.03125,17.484375 C82.0729169,17.3906245 82.1041666,17.2656258 82.125,17.109375 C82.1458334,16.9531242 82.15625,16.7968758 82.15625,16.640625 C82.15625,16.4843742 82.1458334,16.3541672 82.125,16.25 C82.3333344,15.7083306 82.5052077,15.1510445 82.640625,14.578125 C82.7760423,14.0052055 82.9010411,13.4375028 83.015625,12.875 C83.1302089,12.3124972 83.2499994,11.7604194 83.375,11.21875 C83.5000006,10.6770806 83.6666656,10.1770856 83.875,9.71875 C84.1041678,9.67708312 84.3593736,9.70312453 84.640625,9.796875 C84.9218764,9.89062547 85.0937497,10.0104159 85.15625,10.15625 C85.6979194,9.73958125 86.1770813,9.23437797 86.59375,8.640625 C87.0104187,8.04687203 87.4374978,7.46875281 87.875,6.90625 C88.3125022,6.34374719 88.7968723,5.84375219 89.328125,5.40625 C89.8593777,4.96874781 90.5312459,4.70833375 91.34375,4.625 C91.7604187,4.93750156 92.2239558,5.25520672 92.734375,5.578125 C93.2447942,5.90104328 93.666665,6.32291406 94,6.84375 C94.1666675,6.92708375 94.3072911,7.01562453 94.421875,7.109375 C94.5364589,7.20312547 94.6770825,7.30208281 94.84375,7.40625 L94.84375,7.78125 C95.0937512,8.01041781 95.2968742,8.27604016 95.453125,8.578125 C95.6093758,8.88020984 95.7499994,9.20312328 95.875,9.546875 L96.25,10.578125 C96.3750006,10.9218767 96.5208325,11.2499984 96.6875,11.5625 C96.6458331,11.6666672 96.625,11.755208 96.625,11.828125 C96.625,11.901042 96.6406248,11.9791662 96.671875,12.0625 C96.7031252,12.1458337 96.7291666,12.2291662 96.75,12.3125 C96.7708334,12.3958337 96.7708334,12.5104159 96.75,12.65625 C96.6874997,13.5729212 96.3906277,14.3124972 95.859375,14.875 C95.3281223,15.4375028 94.6875038,15.9010398 93.9375,16.265625 C93.1874962,16.6302102 92.3854209,16.9374987 91.53125,17.1875 C90.6770791,17.4375012 89.9062534,17.7083319 89.21875,18 C89.21875,18.0833337 89.255208,18.125 89.328125,18.125 C89.401042,18.125 89.4270834,18.1770828 89.40625,18.28125 C89.9062525,18.5937516 90.3020819,18.8437491 90.59375,19.03125 C90.8854181,19.2187509 91.161457,19.3749994 91.421875,19.5 C91.682293,19.6250006 91.9635402,19.7343745 92.265625,19.828125 C92.5677098,19.9218755 92.9895806,20.0312494 93.53125,20.15625 C94.0729194,20.2812506 94.4947902,20.380208 94.796875,20.453125 C95.0989598,20.526042 95.3749988,20.5885414 95.625,20.640625 C95.8750012,20.6927086 96.130207,20.7343748 96.390625,20.765625 C96.651043,20.7968752 97.0208309,20.8333331 97.5,20.875 C97.6875009,21.0625009 97.8489577,21.286457 97.984375,21.546875 C98.1197923,21.807293 98.2083331,22.067707 98.25,22.328125 C98.2916669,22.588543 98.3020834,22.8385405 98.28125,23.078125 C98.2604166,23.3177095 98.1875006,23.5104159 98.0625,23.65625 C98.0833334,23.7187503 98.130208,23.7447917 98.203125,23.734375 C98.276042,23.7239583 98.3541663,23.7291666 98.4375,23.75 C98.3124994,23.8333337 98.2083337,23.9374994 98.125,24.0625 L97.875,24.4375 C97.7916663,24.5625006 97.6979172,24.6718745 97.59375,24.765625 C97.4895828,24.8593755 97.3437509,24.9166666 97.15625,24.9375 C96.5104134,25.1875012 95.6979216,25.2031261 94.71875,24.984375 C93.7395784,24.7656239 92.5000075,24.3645862 91,23.78125 C90.2499962,23.4895819 89.6406273,23.2343761 89.171875,23.015625 C88.7031227,22.7968739 88.2968767,22.5781261 87.953125,22.359375 C87.6093733,22.1406239 87.2968764,21.9062512 87.015625,21.65625 C86.7343736,21.4062487 86.3958353,21.1041684 86,20.75 Z M90.46875,10.03125 C90.2395822,10.364585 89.9843764,10.6666653 89.703125,10.9375 C89.4218736,11.2083347 89.151043,11.4843736 88.890625,11.765625 C88.630207,12.0468764 88.3958344,12.3593733 88.1875,12.703125 C87.9791656,13.0468767 87.8333337,13.4479144 87.75,13.90625 C88.4791703,13.8229162 89.2395794,13.6197933 90.03125,13.296875 C90.8229206,12.9739567 91.5729131,12.6666681 92.28125,12.375 C92.1979163,11.7291634 91.9739602,11.2083353 91.609375,10.8125 C91.2447898,10.4166647 90.8645853,10.1562506 90.46875,10.03125 Z M116.5,14.625 C116.479167,14.8750012 116.5,15.1145822 116.5625,15.34375 C116.625,15.5729178 116.703125,15.7968739 116.796875,16.015625 C116.890625,16.2343761 116.979166,16.4583322 117.0625,16.6875 C117.145834,16.9166678 117.208333,17.1458322 117.25,17.375 C117.291667,17.6666681 117.291667,17.9843733 117.25,18.328125 C117.208333,18.6718767 117.135417,19.0052067 117.03125,19.328125 C116.927083,19.6510433 116.791668,19.942707 116.625,20.203125 C116.458332,20.463543 116.260418,20.6562494 116.03125,20.78125 C115.739582,21.1562519 115.385419,21.4479156 114.96875,21.65625 C114.552081,21.8645844 114.166668,22.1145819 113.8125,22.40625 C113.583332,22.5520841 113.328126,22.6562497 113.046875,22.71875 C112.765624,22.7812503 112.479168,22.8437497 112.1875,22.90625 C111.958332,23.0312506 111.687502,23.1614577 111.375,23.296875 C111.062498,23.4322923 110.739585,23.5572911 110.40625,23.671875 C110.072915,23.7864589 109.739585,23.8697914 109.40625,23.921875 C109.072915,23.9739586 108.781251,23.9895834 108.53125,23.96875 C107.906247,24.1979178 107.296878,24.348958 106.703125,24.421875 C106.109372,24.494792 105.416671,24.4479175 104.625,24.28125 C103.874996,24.3854172 103.182295,24.3541675 102.546875,24.1875 C101.911455,24.0208325 101.348961,23.7552102 100.859375,23.390625 C100.369789,23.0260398 99.9427102,22.5885442 99.578125,22.078125 C99.2135398,21.5677058 98.9166678,21.0312528 98.6875,20.46875 C98.5208325,19.2812441 98.5624988,18.2031298 98.8125,17.234375 C99.0625012,16.2656202 99.4218727,15.3697958 99.890625,14.546875 C100.359377,13.7239542 100.89583,12.9635452 101.5,12.265625 C102.10417,11.5677048 102.687497,10.88542 103.25,10.21875 C103.375001,10.2604169 103.473958,10.2552086 103.546875,10.203125 C103.619792,10.1510414 103.6875,10.0781255 103.75,9.984375 C103.8125,9.89062453 103.880208,9.80208375 103.953125,9.71875 C104.026042,9.63541625 104.114583,9.58333344 104.21875,9.5625 C104.364584,9.24999844 104.578124,9.01562578 104.859375,8.859375 C105.140626,8.70312422 105.364582,8.47916812 105.53125,8.1875 C105.718751,8.14583312 105.874999,8.08333375 106,8 C106.125001,7.91666625 106.244791,7.82291719 106.359375,7.71875 C106.473959,7.61458281 106.593749,7.51562547 106.71875,7.421875 C106.843751,7.32812453 106.989582,7.26041687 107.15625,7.21875 L107.15625,6.875 C107.531252,6.7083325 107.807291,6.51562609 107.984375,6.296875 C108.161459,6.07812391 108.374999,5.81250156 108.625,5.5 C108.812501,5.47916656 108.963541,5.46875 109.078125,5.46875 C109.192709,5.46875 109.364582,5.44791687 109.59375,5.40625 C109.760418,5.11458187 109.911458,4.89583406 110.046875,4.75 C110.182292,4.60416594 110.385415,4.4479175 110.65625,4.28125 C110.906251,4.40625062 111.18229,4.48958312 111.484375,4.53125 C111.78646,4.57291687 112.052082,4.70833219 112.28125,4.9375 C112.302083,5.14583437 112.364583,5.30729109 112.46875,5.421875 C112.572917,5.53645891 112.687499,5.64062453 112.8125,5.734375 C112.937501,5.82812547 113.057291,5.92708281 113.171875,6.03125 C113.286459,6.13541719 113.364583,6.28124906 113.40625,6.46875 C113.489584,6.48958344 113.546875,6.47916687 113.578125,6.4375 C113.609375,6.39583312 113.666666,6.38541656 113.75,6.40625 C113.8125,6.69791812 113.885416,6.89062453 113.96875,6.984375 C114.052084,7.07812547 114.135416,7.26041531 114.21875,7.53125 C114.114583,7.73958437 114.036459,7.95312391 113.984375,8.171875 C113.932291,8.39062609 113.802084,8.55208281 113.59375,8.65625 C113.572917,8.80208406 113.614583,8.88020828 113.71875,8.890625 C113.822917,8.90104172 113.885417,8.95833281 113.90625,9.0625 C113.927083,9.25000094 113.895834,9.38541625 113.8125,9.46875 C114.312503,10.2812541 114.760415,11.1406205 115.15625,12.046875 C115.552085,12.9531295 115.999998,13.8124959 116.5,14.625 Z M112.59375,17.59375 C112.677084,17.3645822 112.786458,17.1770841 112.921875,17.03125 C113.057292,16.8854159 113.135417,16.6666681 113.15625,16.375 C113.052083,16.2083325 112.989583,16.0781255 112.96875,15.984375 C112.947917,15.8906245 112.9375,15.7395844 112.9375,15.53125 C112.479164,14.8854134 112.083335,14.192712 111.75,13.453125 C111.416665,12.713538 111.041669,12.0208366 110.625,11.375 C110.583333,11.4583337 110.510417,11.5416662 110.40625,11.625 C110.302083,11.7083337 110.187501,11.6875006 110.0625,11.5625 C110.020833,11.7291675 109.947917,11.848958 109.84375,11.921875 C109.739583,11.994792 109.625001,12.0260417 109.5,12.015625 C109.374999,12.0052083 109.244792,11.9739586 109.109375,11.921875 C108.973958,11.8697914 108.854167,11.8020837 108.75,11.71875 C108.14583,12.1979191 107.54167,12.6666644 106.9375,13.125 C106.33333,13.5833356 105.791669,14.1145803 105.3125,14.71875 C105.229166,14.7604169 105.177083,14.7760417 105.15625,14.765625 C105.135417,14.7552083 105.072917,14.7708331 104.96875,14.8125 C104.802082,15.2083353 104.59896,15.5677067 104.359375,15.890625 C104.11979,16.2135433 103.885418,16.541665 103.65625,16.875 C103.427082,17.208335 103.229168,17.5624981 103.0625,17.9375 C102.895832,18.3125019 102.802083,18.7499975 102.78125,19.25 C103.135418,19.5416681 103.552081,19.7187497 104.03125,19.78125 C104.510419,19.8437503 105.005206,19.8541669 105.515625,19.8125 C106.026044,19.7708331 106.526039,19.7031255 107.015625,19.609375 C107.505211,19.5156245 107.958331,19.46875 108.375,19.46875 C109.250004,19.2604156 109.999997,18.9843767 110.625,18.640625 C111.250003,18.2968733 111.906247,17.9479184 112.59375,17.59375 Z M136.625,14.625 C136.604167,14.8750012 136.625,15.1145822 136.6875,15.34375 C136.75,15.5729178 136.828125,15.7968739 136.921875,16.015625 C137.015625,16.2343761 137.104166,16.4583322 137.1875,16.6875 C137.270834,16.9166678 137.333333,17.1458322 137.375,17.375 C137.416667,17.6666681 137.416667,17.9843733 137.375,18.328125 C137.333333,18.6718767 137.260417,19.0052067 137.15625,19.328125 C137.052083,19.6510433 136.916668,19.942707 136.75,20.203125 C136.583332,20.463543 136.385418,20.6562494 136.15625,20.78125 C135.864582,21.1562519 135.510419,21.4479156 135.09375,21.65625 C134.677081,21.8645844 134.291668,22.1145819 133.9375,22.40625 C133.708332,22.5520841 133.453126,22.6562497 133.171875,22.71875 C132.890624,22.7812503 132.604168,22.8437497 132.3125,22.90625 C132.083332,23.0312506 131.812502,23.1614577 131.5,23.296875 C131.187498,23.4322923 130.864585,23.5572911 130.53125,23.671875 C130.197915,23.7864589 129.864585,23.8697914 129.53125,23.921875 C129.197915,23.9739586 128.906251,23.9895834 128.65625,23.96875 C128.031247,24.1979178 127.421878,24.348958 126.828125,24.421875 C126.234372,24.494792 125.541671,24.4479175 124.75,24.28125 C123.999996,24.3854172 123.307295,24.3541675 122.671875,24.1875 C122.036455,24.0208325 121.473961,23.7552102 120.984375,23.390625 C120.494789,23.0260398 120.06771,22.5885442 119.703125,22.078125 C119.33854,21.5677058 119.041668,21.0312528 118.8125,20.46875 C118.645832,19.2812441 118.687499,18.2031298 118.9375,17.234375 C119.187501,16.2656202 119.546873,15.3697958 120.015625,14.546875 C120.484377,13.7239542 121.02083,12.9635452 121.625,12.265625 C122.22917,11.5677048 122.812497,10.88542 123.375,10.21875 C123.500001,10.2604169 123.598958,10.2552086 123.671875,10.203125 C123.744792,10.1510414 123.8125,10.0781255 123.875,9.984375 C123.9375,9.89062453 124.005208,9.80208375 124.078125,9.71875 C124.151042,9.63541625 124.239583,9.58333344 124.34375,9.5625 C124.489584,9.24999844 124.703124,9.01562578 124.984375,8.859375 C125.265626,8.70312422 125.489582,8.47916812 125.65625,8.1875 C125.843751,8.14583312 125.999999,8.08333375 126.125,8 C126.250001,7.91666625 126.369791,7.82291719 126.484375,7.71875 C126.598959,7.61458281 126.718749,7.51562547 126.84375,7.421875 C126.968751,7.32812453 127.114582,7.26041687 127.28125,7.21875 L127.28125,6.875 C127.656252,6.7083325 127.932291,6.51562609 128.109375,6.296875 C128.286459,6.07812391 128.499999,5.81250156 128.75,5.5 C128.937501,5.47916656 129.088541,5.46875 129.203125,5.46875 C129.317709,5.46875 129.489582,5.44791687 129.71875,5.40625 C129.885418,5.11458187 130.036458,4.89583406 130.171875,4.75 C130.307292,4.60416594 130.510415,4.4479175 130.78125,4.28125 C131.031251,4.40625062 131.30729,4.48958312 131.609375,4.53125 C131.91146,4.57291687 132.177082,4.70833219 132.40625,4.9375 C132.427083,5.14583437 132.489583,5.30729109 132.59375,5.421875 C132.697917,5.53645891 132.812499,5.64062453 132.9375,5.734375 C133.062501,5.82812547 133.182291,5.92708281 133.296875,6.03125 C133.411459,6.13541719 133.489583,6.28124906 133.53125,6.46875 C133.614584,6.48958344 133.671875,6.47916687 133.703125,6.4375 C133.734375,6.39583312 133.791666,6.38541656 133.875,6.40625 C133.9375,6.69791812 134.010416,6.89062453 134.09375,6.984375 C134.177084,7.07812547 134.260416,7.26041531 134.34375,7.53125 C134.239583,7.73958437 134.161459,7.95312391 134.109375,8.171875 C134.057291,8.39062609 133.927084,8.55208281 133.71875,8.65625 C133.697917,8.80208406 133.739583,8.88020828 133.84375,8.890625 C133.947917,8.90104172 134.010417,8.95833281 134.03125,9.0625 C134.052083,9.25000094 134.020834,9.38541625 133.9375,9.46875 C134.437502,10.2812541 134.885415,11.1406205 135.28125,12.046875 C135.677085,12.9531295 136.124998,13.8124959 136.625,14.625 Z M132.71875,17.59375 C132.802084,17.3645822 132.911458,17.1770841 133.046875,17.03125 C133.182292,16.8854159 133.260417,16.6666681 133.28125,16.375 C133.177083,16.2083325 133.114583,16.0781255 133.09375,15.984375 C133.072917,15.8906245 133.0625,15.7395844 133.0625,15.53125 C132.604164,14.8854134 132.208335,14.192712 131.875,13.453125 C131.541665,12.713538 131.166669,12.0208366 130.75,11.375 C130.708333,11.4583337 130.635417,11.5416662 130.53125,11.625 C130.427083,11.7083337 130.312501,11.6875006 130.1875,11.5625 C130.145833,11.7291675 130.072917,11.848958 129.96875,11.921875 C129.864583,11.994792 129.750001,12.0260417 129.625,12.015625 C129.499999,12.0052083 129.369792,11.9739586 129.234375,11.921875 C129.098958,11.8697914 128.979167,11.8020837 128.875,11.71875 C128.27083,12.1979191 127.66667,12.6666644 127.0625,13.125 C126.45833,13.5833356 125.916669,14.1145803 125.4375,14.71875 C125.354166,14.7604169 125.302083,14.7760417 125.28125,14.765625 C125.260417,14.7552083 125.197917,14.7708331 125.09375,14.8125 C124.927082,15.2083353 124.72396,15.5677067 124.484375,15.890625 C124.24479,16.2135433 124.010418,16.541665 123.78125,16.875 C123.552082,17.208335 123.354168,17.5624981 123.1875,17.9375 C123.020832,18.3125019 122.927083,18.7499975 122.90625,19.25 C123.260418,19.5416681 123.677081,19.7187497 124.15625,19.78125 C124.635419,19.8437503 125.130206,19.8541669 125.640625,19.8125 C126.151044,19.7708331 126.651039,19.7031255 127.140625,19.609375 C127.630211,19.5156245 128.083331,19.46875 128.5,19.46875 C129.375004,19.2604156 130.124997,18.9843767 130.75,18.640625 C131.375003,18.2968733 132.031247,17.9479184 132.71875,17.59375 Z M157.375,22.875 C156.374995,22.9166669 155.494795,22.8958337 154.734375,22.8125 C153.973955,22.7291662 153.22917,22.5312516 152.5,22.21875 C152.458333,22.1979166 152.416667,22.1458337 152.375,22.0625 C152.333333,21.9791662 152.291667,21.9166669 152.25,21.875 C152.124999,21.8124997 151.973959,21.7864583 151.796875,21.796875 C151.619791,21.8072917 151.468751,21.7916669 151.34375,21.75 C151.177082,21.6666662 150.916668,21.5052095 150.5625,21.265625 C150.208332,21.0260405 149.885418,20.8020844 149.59375,20.59375 C149.218748,20.3020819 148.864585,20.0104181 148.53125,19.71875 C148.197915,19.4270819 147.906251,19.114585 147.65625,18.78125 C147.59375,18.6979162 147.510417,18.6510417 147.40625,18.640625 C147.302083,18.6302083 147.208334,18.6041669 147.125,18.5625 C146.52083,18.9375019 146.010419,19.4062472 145.59375,19.96875 C145.177081,20.5312528 144.781252,21.1041637 144.40625,21.6875 C144.031248,22.2708362 143.635419,22.8229141 143.21875,23.34375 C142.802081,23.8645859 142.270837,24.2604153 141.625,24.53125 C141.437499,24.53125 141.270834,24.5000003 141.125,24.4375 C140.979166,24.3749997 140.843751,24.2968755 140.71875,24.203125 C140.593749,24.1093745 140.468751,24.0208337 140.34375,23.9375 C140.218749,23.8541662 140.083334,23.7916669 139.9375,23.75 C139.9375,23.4999987 139.890625,23.2708344 139.796875,23.0625 C139.703125,22.8541656 139.609375,22.6562509 139.515625,22.46875 C139.421875,22.2812491 139.354167,22.0989592 139.3125,21.921875 C139.270833,21.7447908 139.312499,21.5729175 139.4375,21.40625 C139.312499,21.2812494 139.125001,21.1458341 138.875,21 C139.000001,20.8749994 139.057292,20.7604172 139.046875,20.65625 C139.036458,20.5520828 139.010417,20.4479172 138.96875,20.34375 C138.927083,20.2395828 138.890625,20.1250006 138.859375,20 C138.828125,19.8749994 138.854166,19.7500006 138.9375,19.625 C139.041667,19.625 139.166666,19.6041669 139.3125,19.5625 C139.187499,19.3958325 139.130208,19.2968752 139.140625,19.265625 C139.151042,19.2343748 139.125,19.1875003 139.0625,19.125 C139.020833,18.9999994 139.041666,18.9218752 139.125,18.890625 C139.208334,18.8593748 139.291666,18.8229169 139.375,18.78125 C139.458334,17.7604116 139.635415,16.8125044 139.90625,15.9375 C140.177085,15.0624956 140.479165,14.2187541 140.8125,13.40625 C141.145835,12.5937459 141.473957,11.7708375 141.796875,10.9375 C142.119793,10.1041625 142.385416,9.20833812 142.59375,8.25 C142.822918,8.02083219 143.005208,7.75000156 143.140625,7.4375 C143.276042,7.12499844 143.421874,6.81250156 143.578125,6.5 C143.734376,6.18749844 143.911457,5.88020984 144.109375,5.578125 C144.307293,5.27604016 144.583332,5.03125094 144.9375,4.84375 C145.229168,4.86458344 145.489582,4.94270766 145.71875,5.078125 C145.947918,5.21354234 146.229165,5.27083344 146.5625,5.25 C146.625,5.35416719 146.682291,5.45833281 146.734375,5.5625 C146.786459,5.66666719 146.854166,5.77083281 146.9375,5.875 L147.40625,5.78125 C147.635418,5.96875094 147.838541,6.20312359 148.015625,6.484375 C148.192709,6.76562641 148.3125,7.06249844 148.375,7.375 C148.4375,7.68750156 148.427084,7.98437359 148.34375,8.265625 C148.260416,8.54687641 148.062502,8.7708325 147.75,8.9375 C147.770833,9.04166719 147.776042,9.11979141 147.765625,9.171875 C147.755208,9.22395859 147.739583,9.27083312 147.71875,9.3125 C147.697917,9.35416687 147.6875,9.39583312 147.6875,9.4375 C147.6875,9.47916687 147.71875,9.54166625 147.78125,9.625 C147.364581,9.93750156 147.052084,10.3749972 146.84375,10.9375 C146.635416,11.5000028 146.520833,11.9999978 146.5,12.4375 C146.750001,12.1874987 147.02604,11.9427095 147.328125,11.703125 C147.63021,11.4635405 147.942707,11.2291678 148.265625,11 C148.588543,10.7708322 148.90104,10.5520844 149.203125,10.34375 C149.50521,10.1354156 149.781249,9.92708437 150.03125,9.71875 C150.718753,9.09374687 151.380205,8.58854359 152.015625,8.203125 C152.651045,7.81770641 153.322913,7.38541906 154.03125,6.90625 C154.197918,6.86458312 154.328125,6.85937484 154.421875,6.890625 C154.515625,6.92187516 154.614583,6.95833312 154.71875,7 C154.71875,6.87499937 154.682292,6.80208344 154.609375,6.78125 C154.536458,6.76041656 154.510417,6.67708406 154.53125,6.53125 C154.843752,6.44791625 155.114582,6.34895891 155.34375,6.234375 C155.572918,6.11979109 155.822915,6.01041719 156.09375,5.90625 C156.281251,6.09375094 156.458332,6.28645734 156.625,6.484375 C156.791668,6.68229266 157.020832,6.80208312 157.3125,6.84375 C157.416667,7.07291781 157.541666,7.24479109 157.6875,7.359375 C157.833334,7.47395891 157.979166,7.58333281 158.125,7.6875 C158.270834,7.79166719 158.401041,7.91666594 158.515625,8.0625 C158.630209,8.20833406 158.697917,8.43749844 158.71875,8.75 C158.635416,8.89583406 158.546875,9.0520825 158.453125,9.21875 C158.359375,9.3854175 158.270834,9.58333219 158.1875,9.8125 C157.770831,10.1875019 157.34896,10.5208319 156.921875,10.8125 C156.49479,11.1041681 156.062502,11.3854153 155.625,11.65625 C155.187498,11.9270847 154.739586,12.1979153 154.28125,12.46875 C153.822914,12.7395847 153.354169,13.0624981 152.875,13.4375 C152.770833,13.5833341 152.640626,13.7135411 152.484375,13.828125 C152.328124,13.9427089 152.166668,14.0572911 152,14.171875 C151.833332,14.2864589 151.677084,14.4062494 151.53125,14.53125 C151.385416,14.6562506 151.270834,14.8020825 151.1875,14.96875 C151.125,14.9895834 151.0625,15 151,15 C150.9375,15 150.875,15.0104166 150.8125,15.03125 C150.75,15.1770841 150.651042,15.2916662 150.515625,15.375 C150.380208,15.4583337 150.291667,15.5729159 150.25,15.71875 C150.562502,16.38542 150.968748,16.8958316 151.46875,17.25 C151.968752,17.6041684 152.531247,17.8593742 153.15625,18.015625 C153.781253,18.1718758 154.45833,18.2552083 155.1875,18.265625 C155.91667,18.2760417 156.677079,18.28125 157.46875,18.28125 C157.552084,18.2604166 157.588542,18.213542 157.578125,18.140625 C157.567708,18.067708 157.614583,18.0416666 157.71875,18.0625 C158.218752,18.2291675 158.604165,18.4635402 158.875,18.765625 C159.145835,19.0677098 159.468748,19.3645819 159.84375,19.65625 C159.802083,20.4479206 159.562502,21.1041641 159.125,21.625 C158.687498,22.1458359 158.10417,22.5624984 157.375,22.875 Z M167.4375,23.65625 C166.854164,23.8437509 166.218753,24.0312491 165.53125,24.21875 C164.843747,24.4062509 164.156253,24.5 163.46875,24.5 C162.427078,24.5 161.60417,24.2395859 161,23.71875 C160.895833,23.4895822 160.802084,23.3333337 160.71875,23.25 C160.65625,23.1666662 160.598959,23.0781255 160.546875,22.984375 C160.494791,22.8906245 160.458333,22.7604175 160.4375,22.59375 C160.187499,22.3020819 159.989584,21.9635436 159.84375,21.578125 C159.697916,21.1927064 159.598959,20.796877 159.546875,20.390625 C159.494791,19.984373 159.484375,19.5729187 159.515625,19.15625 C159.546875,18.7395812 159.614583,18.3437519 159.71875,17.96875 C159.760417,17.8854162 159.786458,17.8020837 159.796875,17.71875 C159.807292,17.6354162 159.822917,17.5416672 159.84375,17.4375 C159.927084,17.104165 160.015625,16.7812516 160.109375,16.46875 C160.203125,16.1562484 160.333333,15.8854178 160.5,15.65625 C160.416666,15.4687491 160.416666,15.2604178 160.5,15.03125 C160.583334,14.8020822 160.677083,14.5937509 160.78125,14.40625 C161.072918,13.6145794 161.317707,12.9427111 161.515625,12.390625 C161.713543,11.8385389 161.916666,11.2916694 162.125,10.75 C162.479168,9.81249531 162.812498,8.88542125 163.125,7.96875 C163.437502,7.05207875 163.718749,6.06250531 163.96875,5 C164.135418,4.89583281 164.260416,4.82291687 164.34375,4.78125 C164.468751,4.73958312 164.572916,4.70833344 164.65625,4.6875 C165.031252,4.87500094 165.468748,5.05729078 165.96875,5.234375 C166.468752,5.41145922 166.885415,5.5 167.21875,5.5 C167.385418,5.60416719 167.489583,5.68229141 167.53125,5.734375 C167.572917,5.78645859 167.614583,5.83333312 167.65625,5.875 C167.885418,6.14583469 168.083333,6.42187359 168.25,6.703125 C168.416668,6.98437641 168.46875,7.35416437 168.40625,7.8125 C168.281249,8.00000094 168.1875,8.09375 168.125,8.09375 C168.020833,8.51041875 167.911459,8.86458187 167.796875,9.15625 C167.682291,9.44791812 167.562501,9.73958187 167.4375,10.03125 C167.291666,10.3437516 167.156251,10.6562484 167.03125,10.96875 C166.906249,11.2812516 166.802084,11.6666644 166.71875,12.125 C166.635416,12.2291672 166.578125,12.3229162 166.546875,12.40625 C166.515625,12.4895837 166.479167,12.5833328 166.4375,12.6875 C166.395833,12.7916672 166.348959,12.9010411 166.296875,13.015625 C166.244791,13.1302089 166.166667,13.2291662 166.0625,13.3125 C166,13.8541694 165.901042,14.291665 165.765625,14.625 C165.630208,14.958335 165.489584,15.291665 165.34375,15.625 C165.093749,16.2291697 164.869793,16.8333303 164.671875,17.4375 C164.473957,18.0416697 164.354167,18.7291628 164.3125,19.5 C164.416667,19.4583331 164.515625,19.4375 164.609375,19.4375 L164.875,19.4375 C165.062501,19.4375 165.281249,19.4687497 165.53125,19.53125 C166.156253,19.197915 166.838538,19.0000003 167.578125,18.9375 C168.317712,18.8749997 169.05208,18.8333334 169.78125,18.8125 L170.65625,18.8125 C170.947918,18.8125 171.218749,18.7916669 171.46875,18.75 C171.656251,18.8541672 171.776041,18.9114583 171.828125,18.921875 C171.880209,18.9322917 171.958333,18.9375 172.0625,18.9375 C172.208334,18.9375 172.333333,18.9479166 172.4375,18.96875 C172.687501,19.1979178 172.927082,19.3645828 173.15625,19.46875 C173.385418,19.5729172 173.624999,19.6666662 173.875,19.75 C174.104168,19.8333337 174.328124,19.9218745 174.546875,20.015625 C174.765626,20.1093755 174.979166,20.2395825 175.1875,20.40625 L175.40625,21.75 C175.552084,21.9375009 175.614583,22.0624997 175.59375,22.125 C175.59375,22.2916675 175.552084,22.4166662 175.46875,22.5 L175.53125,22.84375 C175.218748,22.9062503 175.005209,22.9791662 174.890625,23.0625 C174.776041,23.1458337 174.666667,23.2395828 174.5625,23.34375 C174.395833,23.3645834 174.276042,23.375 174.203125,23.375 L174,23.375 C173.708332,23.375 173.354169,23.4270828 172.9375,23.53125 C172.374997,23.3437491 171.79167,23.25 171.1875,23.25 C170.958332,23.25 170.718751,23.2604166 170.46875,23.28125 L169.71875,23.34375 C169.468749,23.3854169 169.213543,23.4166666 168.953125,23.4375 C168.692707,23.4583334 168.427085,23.46875 168.15625,23.46875 L167.4375,23.65625 Z M186.25,15.8125 C186.104166,15.9375006 185.979167,16.0885408 185.875,16.265625 C185.770833,16.4427092 185.666667,16.6249991 185.5625,16.8125 C185.458333,17.0416678 185.343751,17.2604156 185.21875,17.46875 C185.093749,17.6770844 184.937501,17.8645825 184.75,18.03125 C184.645833,18.3437516 184.541667,18.5885408 184.4375,18.765625 C184.333333,18.9427092 184.166668,19.1458322 183.9375,19.375 C183.729166,20.2083375 183.239587,21.1145784 182.46875,22.09375 C182.447917,22.2812509 182.390625,22.4635408 182.296875,22.640625 C182.203125,22.8177092 182.104167,22.9895825 182,23.15625 C181.958333,23.2187503 181.916667,23.286458 181.875,23.359375 C181.833333,23.432292 181.802083,23.4895831 181.78125,23.53125 L181.71875,23.84375 C181.614583,24.0104175 181.500001,24.1562494 181.375,24.28125 L181.03125,24.625 C180.989583,24.6875003 180.916667,24.7708328 180.8125,24.875 L180.34375,25.0625 C178.822909,24.8541656 177.895835,24.0416737 177.5625,22.625 L177.59375,22.3125 C177.635417,22.2083328 177.671875,22.0989589 177.703125,21.984375 C177.734375,21.8697911 177.770833,21.7500006 177.8125,21.625 C177.895834,21.3333319 177.994791,21.0416681 178.109375,20.75 C178.223959,20.4583319 178.395832,20.1979178 178.625,19.96875 C178.666667,19.8229159 178.760416,19.5885433 178.90625,19.265625 C179.052084,18.9427067 179.302082,18.4583366 179.65625,17.8125 C179.947918,17.3124975 180.177082,16.9166681 180.34375,16.625 C180.510418,16.3333319 180.645833,16.1041675 180.75,15.9375 C180.541666,15.604165 180.291668,15.3020847 180,15.03125 C179.729165,14.5104141 179.494793,14.0104191 179.296875,13.53125 C179.098957,13.0520809 178.947917,12.6250019 178.84375,12.25 C178.822917,11.9791653 178.791667,11.7500009 178.75,11.5625 C178.708333,11.3749991 178.666667,11.1770844 178.625,10.96875 C178.5625,10.7395822 178.510417,10.5104178 178.46875,10.28125 C178.427083,10.0520822 178.40625,9.81250125 178.40625,9.5625 C178.302083,9.41666594 178.239583,9.27083406 178.21875,9.125 L178.28125,8.8125 C178.34375,8.66666594 178.354167,8.47395953 178.3125,8.234375 C178.270833,7.99479047 178.21875,7.75000125 178.15625,7.5 C178.114583,7.29166562 178.067709,7.06250125 178.015625,6.8125 C177.963541,6.56249875 177.947917,6.31250125 177.96875,6.0625 C177.989583,5.81249875 178.057291,5.57812609 178.171875,5.359375 C178.286459,5.14062391 178.479165,4.9479175 178.75,4.78125 L179.28125,4.75 C179.468751,4.85416719 179.651041,4.95312453 179.828125,5.046875 C180.005209,5.14062547 180.177082,5.23958281 180.34375,5.34375 C180.572918,5.44791719 180.791666,5.55208281 181,5.65625 C181.208334,5.76041719 181.427082,5.8958325 181.65625,6.0625 L181.875,6.5 L182.28125,6.84375 L182.28125,7.1875 C182.302083,7.27083375 182.3125,7.38541594 182.3125,7.53125 C182.3125,7.80208469 182.354166,7.96874969 182.4375,8.03125 L182.5625,8.40625 C182.5625,8.69791812 182.59375,8.97395703 182.65625,9.234375 C182.71875,9.49479297 182.78125,9.73958219 182.84375,9.96875 C182.90625,10.1979178 182.96875,10.4374987 183.03125,10.6875 C183.09375,10.9375012 183.104167,11.2083319 183.0625,11.5 C183.187501,11.4374997 183.291666,11.3645837 183.375,11.28125 C183.416667,11.2395831 183.458333,11.2083334 183.5,11.1875 C183.541667,11.1666666 183.583333,11.1354169 183.625,11.09375 L185.46875,8.59375 L185.40625,8.28125 L186.0625,7.65625 C186.229168,7.4895825 186.390624,7.33333406 186.546875,7.1875 C186.703126,7.04166594 186.833333,6.8854175 186.9375,6.71875 L187.28125,6.46875 C187.94792,5.42707812 188.895827,4.78125125 190.125,4.53125 L190.5625,4.46875 L190.6875,4.875 C190.770834,5.10416781 190.942707,5.31249906 191.203125,5.5 C191.463543,5.68750094 191.739582,5.8645825 192.03125,6.03125 L192.3125,6.21875 C192.416667,6.42708437 192.46875,6.58333281 192.46875,6.6875 C192.46875,6.79166719 192.458333,6.88541625 192.4375,6.96875 L192.5625,7.28125 C192.395832,7.7812525 192.19271,8.14583219 191.953125,8.375 C191.71354,8.60416781 191.479168,8.81249906 191.25,9 C191.062499,9.1666675 190.890626,9.31770766 190.734375,9.453125 C190.578124,9.58854234 190.458334,9.76041562 190.375,9.96875 L190.15625,10.21875 C189.718748,10.4687512 189.437501,10.8020812 189.3125,11.21875 L189.21875,11.59375 L188.84375,11.59375 C188.822917,11.59375 188.776042,11.630208 188.703125,11.703125 C188.630208,11.776042 188.520834,11.9583319 188.375,12.25 C188.229166,12.4583344 188.125,12.5937497 188.0625,12.65625 L187.90625,12.8125 C187.885417,12.8958337 187.859375,12.973958 187.828125,13.046875 C187.796875,13.119792 187.760417,13.2083328 187.71875,13.3125 C187.447915,13.5833347 187.28125,13.7864577 187.21875,13.921875 C187.15625,14.0572923 187.083334,14.2083325 187,14.375 C186.916666,14.5416675 186.838542,14.7031242 186.765625,14.859375 C186.692708,15.0156258 186.572918,15.1770825 186.40625,15.34375 L186.25,15.8125 Z M195.46875,18.3125 C195.281249,18.3541669 195.145834,18.4635408 195.0625,18.640625 C194.979166,18.8177092 194.901042,18.9999991 194.828125,19.1875 C194.755208,19.3750009 194.682292,19.5468742 194.609375,19.703125 C194.536458,19.8593758 194.427084,19.9375 194.28125,19.9375 C194.260417,20.1041675 194.203125,20.2499994 194.109375,20.375 C194.015625,20.5000006 193.927084,20.6302077 193.84375,20.765625 C193.760416,20.9010423 193.697917,21.0468742 193.65625,21.203125 C193.614583,21.3593758 193.635416,21.5416656 193.71875,21.75 C193.552082,21.8750006 193.447917,22.0520822 193.40625,22.28125 C193.364583,22.5104178 193.317709,22.7291656 193.265625,22.9375 C193.213541,23.1458344 193.125001,23.3229159 193,23.46875 C192.874999,23.6145841 192.645835,23.6770834 192.3125,23.65625 C192.25,23.7395837 192.239583,23.7916666 192.28125,23.8125 C192.322917,23.8333334 192.354167,23.9062494 192.375,24.03125 C192.145832,23.9895831 191.973959,24.005208 191.859375,24.078125 C191.744791,24.151042 191.604168,24.1979166 191.4375,24.21875 C191.041665,24.0937494 190.713543,23.8750016 190.453125,23.5625 C190.192707,23.2499984 189.963543,22.9010436 189.765625,22.515625 C189.567707,22.1302064 189.390626,21.7395853 189.234375,21.34375 C189.078124,20.9479147 188.927084,20.6041681 188.78125,20.3125 C188.84375,20.0833322 188.854167,19.8593761 188.8125,19.640625 C188.770833,19.4218739 188.697917,19.2395841 188.59375,19.09375 C189.614588,16.9270725 190.729161,14.6145956 191.9375,12.15625 C193.145839,9.69790437 194.291661,7.27084531 195.375,4.875 C195.854169,5.06250094 196.328123,5.27604047 196.796875,5.515625 C197.265627,5.75520953 197.692706,6.03124844 198.078125,6.34375 C198.463544,6.65625156 198.791665,7.01562297 199.0625,7.421875 C199.333335,7.82812703 199.510416,8.2812475 199.59375,8.78125 C199.552083,8.90625062 199.505209,8.95312516 199.453125,8.921875 C199.401041,8.89062484 199.354167,8.90624969 199.3125,8.96875 C199.395834,9.07291719 199.442708,9.14583312 199.453125,9.1875 C199.463542,9.22916687 199.463542,9.27083312 199.453125,9.3125 C199.442708,9.35416687 199.4375,9.41145797 199.4375,9.484375 C199.4375,9.55729203 199.46875,9.65624937 199.53125,9.78125 C199.447916,9.76041656 199.390625,9.77083312 199.359375,9.8125 C199.328125,9.85416687 199.260417,9.85416687 199.15625,9.8125 C199.239584,10.0416678 199.265625,10.2291659 199.234375,10.375 C199.203125,10.5208341 199.15625,10.6510411 199.09375,10.765625 C199.03125,10.8802089 198.979167,11.0052077 198.9375,11.140625 C198.895833,11.2760423 198.90625,11.4479156 198.96875,11.65625 C198.90625,11.65625 198.859375,11.6718748 198.828125,11.703125 C198.796875,11.7343752 198.770833,11.7656248 198.75,11.796875 C198.729167,11.8281252 198.703125,11.8593748 198.671875,11.890625 C198.640625,11.9218752 198.59375,11.9270834 198.53125,11.90625 C198.59375,12.3645856 198.614583,12.8229144 198.59375,13.28125 C198.572917,13.7395856 198.557292,14.2031227 198.546875,14.671875 C198.536458,15.1406273 198.541667,15.6302058 198.5625,16.140625 C198.583333,16.6510442 198.656249,17.1770806 198.78125,17.71875 C199.531254,17.2812478 200.130206,16.7187534 200.578125,16.03125 C201.026044,15.3437466 201.390624,14.5729209 201.671875,13.71875 C201.953126,12.8645791 202.166666,11.9479216 202.3125,10.96875 C202.458334,9.98957844 202.614582,8.98958844 202.78125,7.96875 C202.968751,7.78124906 203.114583,7.55208469 203.21875,7.28125 C203.322917,7.01041531 203.416666,6.72395984 203.5,6.421875 L203.75,5.515625 C203.833334,5.21354016 203.937499,4.93750125 204.0625,4.6875 C204.375002,4.72916687 204.640624,4.82812422 204.859375,4.984375 C205.078126,5.14062578 205.281249,5.30729078 205.46875,5.484375 C205.656251,5.66145922 205.854166,5.82812422 206.0625,5.984375 C206.270834,6.14062578 206.531248,6.23958312 206.84375,6.28125 C207.093751,6.63541844 207.322916,6.979165 207.53125,7.3125 C207.739584,7.645835 207.875,7.99999812 207.9375,8.375 C207.833333,8.5416675 207.755209,8.72916562 207.703125,8.9375 C207.651041,9.14583437 207.59375,9.35416562 207.53125,9.5625 C207.46875,9.77083437 207.385417,9.96354078 207.28125,10.140625 C207.177083,10.3177092 207.031251,10.4687494 206.84375,10.59375 C206.78125,11.1354194 206.703125,11.6302061 206.609375,12.078125 C206.515625,12.5260439 206.421875,12.9687478 206.328125,13.40625 C206.234375,13.8437522 206.15625,14.2968727 206.09375,14.765625 C206.03125,15.2343773 206.010417,15.7499972 206.03125,16.3125 C205.864582,16.7916691 205.687501,17.3020806 205.5,17.84375 C205.312499,18.3854194 205.166667,18.8749978 205.0625,19.3125 C204.729165,19.5833347 204.468751,19.9062481 204.28125,20.28125 C204.093749,20.6562519 203.895834,21.0312481 203.6875,21.40625 C203.604166,21.4895837 203.552083,21.5104169 203.53125,21.46875 C203.510417,21.4270831 203.437501,21.3958334 203.3125,21.375 C203.333333,21.4583337 203.333333,21.5208331 203.3125,21.5625 C203.291667,21.6041669 203.265625,21.6406248 203.234375,21.671875 C203.203125,21.7031252 203.182292,21.7499997 203.171875,21.8125 C203.161458,21.8750003 203.177083,21.9583328 203.21875,22.0625 C202.927082,22.1875006 202.666668,22.3645822 202.4375,22.59375 C202.208332,22.8229178 201.963543,23.0312491 201.703125,23.21875 C201.442707,23.4062509 201.13021,23.5312497 200.765625,23.59375 C200.40104,23.6562503 199.927086,23.5833344 199.34375,23.375 C198.489579,22.7499969 197.734378,22.0312541 197.078125,21.21875 C196.421872,20.4062459 195.885419,19.4375056 195.46875,18.3125 Z" id="Brooklyn"></path>
        </g>
    </g>
</svg>